<svg width="49" height="49" viewBox="0 0 49 49" fill="none" xmlns="http://www.w3.org/2000/svg">
<path fill-rule="evenodd" clip-rule="evenodd" d="M13.5193 12.4675C13.5768 11.7581 13.7616 11.0841 14.0512 10.4675H6.5V12.9491L10.5 15.9798V42.4983H38.5V16.015L43 12.9843V10.4675H24.9488C25.2384 11.0841 25.4232 11.7581 25.4807 12.4675H40.187L36.5 14.9507V40.4983H12.5V14.986L9.17616 12.4675H13.5193Z" fill="#35C4C4"/>
<path fill-rule="evenodd" clip-rule="evenodd" d="M10.5 14.2329L8 10.9829H13.75L17 17.4829H21.5L25 10.9829H41.5L38.5 14.9829V41.4829H34.5V24.4829H26.5V41.4829H10.5V14.2329ZM14.5 24.4829H21.5V31.4829H14.5V24.4829Z" fill="#35C4C4"/>
<path d="M6.5 41.4829C6.5 42.0352 6.94772 42.4829 7.5 42.4829H41.5C42.0523 42.4829 42.5 42.0352 42.5 41.4829C42.5 40.9306 42.0523 40.4829 41.5 40.4829H7.5C6.94772 40.4829 6.5 40.9306 6.5 41.4829Z" fill="#35C4C4"/>
<path fill-rule="evenodd" clip-rule="evenodd" d="M25.5 12.4829C25.5 15.7966 22.8137 18.4829 19.5 18.4829C16.1863 18.4829 13.5 15.7966 13.5 12.4829C13.5 9.1692 16.1863 6.48291 19.5 6.48291C22.8137 6.48291 25.5 9.1692 25.5 12.4829ZM20.5 9.48291V11.4829H22.5V13.4829H20.5V15.4829H18.5V13.4829H16.5V11.4829H18.5V9.48291H20.5Z" fill="#35C4C4"/>
</svg>
