<svg width="8" height="8" viewBox="0 0 8 8" fill="none" xmlns="http://www.w3.org/2000/svg">
<path d="M7.08654 4.754C7.04887 4.79267 6.90664 4.958 6.77415 5.094C5.9974 5.94933 3.9711 7.34933 2.91054 7.77667C2.74947 7.84533 2.34226 7.99067 2.12469 8C1.91622 8 1.71748 7.952 1.52784 7.85467C1.29144 7.71867 1.1018 7.50467 0.997888 7.252C0.930994 7.07667 0.827081 6.552 0.827081 6.54267C0.723168 5.96867 0.666015 5.036 0.666015 4.00533C0.666015 3.02333 0.723167 2.12867 0.808246 1.546C0.817988 1.53667 0.921901 0.884666 1.03556 0.661333C1.24403 0.253333 1.65124 -2.81484e-07 2.08703 -3.00533e-07L2.12469 -3.02179e-07C2.40851 0.00999969 3.00536 0.263333 3.00536 0.272667C4.00877 0.700667 5.98831 2.032 6.78389 2.91667C6.78389 2.91667 7.00795 3.144 7.10537 3.286C7.25734 3.49 7.33268 3.74267 7.33268 3.99533C7.33268 4.27733 7.2476 4.54 7.08654 4.754" fill="#4F5675"/>
</svg>
