<svg width="8" height="7" viewBox="0 0 8 7" fill="none" xmlns="http://www.w3.org/2000/svg">
<path d="M3.246 6.58727C3.20733 6.5496 3.042 6.40737 2.906 6.27488C2.05067 5.49813 0.650667 3.47183 0.223333 2.41127C0.154667 2.2502 0.00933333 1.84299 0 1.62543C0 1.41695 0.048 1.21822 0.145333 1.02858C0.281333 0.792174 0.495333 0.602533 0.748 0.49862C0.923333 0.431726 1.448 0.327813 1.45733 0.327813C2.03133 0.2239 2.964 0.166748 3.99467 0.166748C4.97667 0.166748 5.87133 0.2239 6.454 0.308979C6.46333 0.318721 7.11533 0.422634 7.33867 0.536289C7.74667 0.744764 8 1.15197 8 1.58776V1.62543C7.99 1.90924 7.73667 2.50609 7.72733 2.50609C7.29933 3.5095 5.968 5.48904 5.08333 6.28462C5.08333 6.28462 4.856 6.50869 4.714 6.6061C4.51 6.75808 4.25733 6.83341 4.00467 6.83341C3.72267 6.83341 3.46 6.74834 3.246 6.58727Z" fill="#4F5675"/>
</svg>
