<svg width="24" height="26" viewBox="0 0 24 26" fill="none" xmlns="http://www.w3.org/2000/svg">
<path d="M12 9.625C13.5188 9.625 14.75 8.3938 14.75 6.875C14.75 5.35622 13.5188 4.125 12 4.125C10.4812 4.125 9.25 5.35622 9.25 6.875C9.25 8.3938 10.4812 9.625 12 9.625Z" fill="#FA6758"/>
<path d="M14.5002 12.393C15.3515 12.2699 16.248 12.0851 17.2404 11.8396C17.7765 11.707 18.1036 11.1649 17.971 10.6288C17.8384 10.0926 17.2963 9.76551 16.7601 9.89816C14.8538 10.3697 13.417 10.5815 12.004 10.5761C10.588 10.5707 9.14745 10.3472 7.22945 9.89551C6.6919 9.76891 6.15345 10.1021 6.02685 10.6397C5.90025 11.1772 6.2334 11.7157 6.771 11.8423C7.7581 12.0747 8.65125 12.2558 9.5002 12.3799V13.6251H14.5002V12.393Z" fill="#FA6758"/>
<path fill-rule="evenodd" clip-rule="evenodd" d="M13.3397 17.1148C14.2148 16.7251 14.5 15.9118 14.5 15.5952V14.625H9.5V15.5952C9.5 15.9118 9.7852 16.7251 10.6603 17.1148C10.7604 17.1594 10.873 17.2153 10.9741 17.2655L11.0337 17.295C11.158 17.3565 11.2783 17.4146 11.4 17.4662C11.6537 17.5737 11.8517 17.625 12 17.625C12.1484 17.625 12.3462 17.5737 12.6 17.4662C12.7217 17.4146 12.842 17.3565 12.9663 17.295L13.0258 17.2656M13.3397 17.1148C13.2396 17.1594 13.127 17.2153 13.0258 17.2656L13.3397 17.1148Z" fill="#FA6758"/>
<path d="M10.2171 18.0531C9.62601 17.7844 9.22896 17.3784 8.99016 16.9746C8.21436 17.6499 7.78711 18.4991 7.78711 19.6196C7.78711 20.0666 7.88271 20.7372 8.13121 21.2807C8.38566 21.8373 8.72726 22.1249 9.15901 22.1249C9.62231 22.1249 10.0145 21.7703 10.0145 21.314C10.0145 21.111 9.92856 20.9191 9.79266 20.6337L9.78366 20.6149C9.66051 20.3567 9.49796 20.0158 9.49796 19.6196C9.49796 19.1862 9.71291 18.7262 9.96301 18.3538C10.0434 18.2343 10.1283 18.137 10.2171 18.0531Z" fill="#FA6758"/>
<path d="M13.7832 18.053C14.3743 17.7844 14.7713 17.3784 15.0102 16.9746C15.786 17.6499 16.2133 18.4991 16.2133 19.6197C16.2133 20.0666 16.1176 20.7373 15.8692 21.2808C15.6147 21.8374 15.2731 22.1249 14.8413 22.1249C14.378 22.1249 13.9859 21.7704 13.9859 21.3141C13.9859 21.1111 14.0718 20.9191 14.2077 20.6338L14.2167 20.6149C14.3398 20.3567 14.5024 20.0159 14.5024 19.6197C14.5024 19.1863 14.2875 18.7263 14.0373 18.3539C13.957 18.2343 13.872 18.137 13.7832 18.053Z" fill="#FA6758"/>
</svg>
