<svg width="24" height="24" viewBox="0 0 24 24" fill="none" xmlns="http://www.w3.org/2000/svg">
<path d="M12 8.625C13.5188 8.625 14.75 7.3938 14.75 5.875C14.75 4.35622 13.5188 3.125 12 3.125C10.4812 3.125 9.25 4.35622 9.25 5.875C9.25 7.3938 10.4812 8.625 12 8.625Z"/>
<path d="M14.5002 11.3925C15.3515 11.2694 16.248 11.0846 17.2404 10.8391C17.7765 10.7065 18.1036 10.1644 17.971 9.62827C17.8384 9.09212 17.2963 8.76502 16.7601 8.89767C14.8538 9.36922 13.417 9.58097 12.004 9.57562C10.588 9.57022 9.14745 9.34672 7.22945 8.89502C6.6919 8.76842 6.15345 9.10157 6.02685 9.63917C5.90025 10.1767 6.2334 10.7152 6.771 10.8418C7.7581 11.0742 8.65125 11.2553 9.5002 11.3794V12.6246H14.5002V11.3925Z"/>
<path fill-rule="evenodd" clip-rule="evenodd" d="M13.3397 16.1148C14.2148 15.7251 14.5 14.9118 14.5 14.5952V13.625H9.5V14.5952C9.5 14.9118 9.7852 15.7251 10.6603 16.1148C10.7604 16.1594 10.873 16.2153 10.9741 16.2655L11.0337 16.295C11.158 16.3565 11.2783 16.4146 11.4 16.4662C11.6537 16.5737 11.8517 16.625 12 16.625C12.1484 16.625 12.3462 16.5737 12.6 16.4662C12.7217 16.4146 12.842 16.3565 12.9663 16.295L13.0258 16.2656M13.3397 16.1148C13.2396 16.1594 13.127 16.2153 13.0258 16.2656L13.3397 16.1148Z"/>
<path d="M10.2171 17.0531C9.62601 16.7844 9.22896 16.3784 8.99016 15.9746C8.21436 16.6499 7.78711 17.4991 7.78711 18.6196C7.78711 19.0666 7.88271 19.7372 8.13121 20.2807C8.38566 20.8373 8.72726 21.1249 9.15901 21.1249C9.62231 21.1249 10.0145 20.7703 10.0145 20.314C10.0145 20.111 9.92856 19.9191 9.79266 19.6337L9.78366 19.6149C9.66051 19.3567 9.49796 19.0158 9.49796 18.6196C9.49796 18.1862 9.71291 17.7262 9.96301 17.3538C10.0434 17.2343 10.1283 17.137 10.2171 17.0531Z"/>
<path d="M13.7832 17.053C14.3743 16.7844 14.7713 16.3784 15.0102 15.9746C15.786 16.6499 16.2133 17.4991 16.2133 18.6197C16.2133 19.0666 16.1176 19.7373 15.8692 20.2808C15.6147 20.8374 15.2731 21.1249 14.8413 21.1249C14.378 21.1249 13.9859 20.7704 13.9859 20.3141C13.9859 20.1111 14.0718 19.9191 14.2077 19.6338L14.2167 19.6149C14.3398 19.3567 14.5024 19.0159 14.5024 18.6197C14.5024 18.1863 14.2875 17.7263 14.0373 17.3539C13.957 17.2343 13.872 17.137 13.7832 17.053Z"/>
</svg>
