<svg width="24" height="16" viewBox="0 0 24 16" fill="none" xmlns="http://www.w3.org/2000/svg">
<path fill-rule="evenodd" clip-rule="evenodd" d="M2.4 15.2C1.07452 15.2 -4.69696e-08 14.1255 -1.04907e-07 12.8L-5.24537e-07 3.2C-5.82474e-07 1.87454 1.07452 0.800001 2.4 0.800001L11.4 0.800001C11.4 1.13138 11.6686 1.4 12 1.4C12.3314 1.4 12.6 1.13138 12.6 0.800001L21.6 0.8C22.9255 0.8 24 1.87454 24 3.2L24 12.8C24 14.1255 22.9255 15.2 21.6 15.2L12.6 15.2C12.6 14.8686 12.3314 14.6 12 14.6C11.6686 14.6 11.4 14.8686 11.4 15.2L2.4 15.2ZM12.6 13.4C12.6 13.0686 12.3314 12.8 12 12.8C11.6686 12.8 11.4 13.0686 11.4 13.4C11.4 13.7314 11.6686 14 12 14C12.3314 14 12.6 13.7314 12.6 13.4ZM12 11C12.3314 11 12.6 11.2686 12.6 11.6C12.6 11.9314 12.3314 12.2 12 12.2C11.6686 12.2 11.4 11.9314 11.4 11.6C11.4 11.2686 11.6686 11 12 11ZM12.6 9.8C12.6 9.46862 12.3314 9.2 12 9.2C11.6686 9.2 11.4 9.46862 11.4 9.8C11.4 10.1314 11.6686 10.4 12 10.4C12.3314 10.4 12.6 10.1314 12.6 9.8ZM12 7.4C12.3314 7.4 12.6 7.66862 12.6 8C12.6 8.33138 12.3314 8.6 12 8.6C11.6686 8.6 11.4 8.33138 11.4 8C11.4 7.66862 11.6686 7.4 12 7.4ZM12.6 6.2C12.6 5.86862 12.3314 5.6 12 5.6C11.6686 5.6 11.4 5.86862 11.4 6.2C11.4 6.53138 11.6686 6.8 12 6.8C12.3314 6.8 12.6 6.53138 12.6 6.2ZM12 3.8C12.3314 3.8 12.6 4.06862 12.6 4.4C12.6 4.73138 12.3314 5 12 5C11.6686 5 11.4 4.73138 11.4 4.4C11.4 4.06862 11.6686 3.8 12 3.8ZM12.6 2.6C12.6 2.26862 12.3314 2 12 2C11.6686 2 11.4 2.26862 11.4 2.6C11.4 2.93138 11.6686 3.2 12 3.2C12.3314 3.2 12.6 2.93138 12.6 2.6ZM4.44852 9.15734C3.97992 9.626 3.97992 10.3858 4.44852 10.8544L6.14556 12.5515C6.61422 13.0201 7.374 13.0201 7.84266 12.5515C8.31126 12.0828 8.31126 11.323 7.84266 10.8544L6.14556 9.15734C5.67696 8.68874 4.91718 8.68874 4.44852 9.15734ZM4.44852 5.45444C3.97992 4.98578 3.97992 4.226 4.44852 3.75734C4.91718 3.28874 5.67696 3.28874 6.14556 3.75734L7.84266 5.45444C8.31126 5.92304 8.31126 6.68282 7.84266 7.15148C7.374 7.62008 6.61422 7.62008 6.14556 7.15148L4.44852 5.45444ZM16.4485 9.15734C15.9799 9.626 15.9799 10.3858 16.4485 10.8544L18.1456 12.5515C18.6142 13.0201 19.374 13.0201 19.8427 12.5515C20.3113 12.0828 20.3113 11.323 19.8427 10.8544L18.1456 9.15734C17.677 8.68874 16.9172 8.68874 16.4485 9.15734ZM16.4485 5.45444C15.9799 4.98578 15.9799 4.226 16.4485 3.75734C16.9172 3.28874 17.677 3.28874 18.1456 3.75734L19.8427 5.45444C20.3113 5.92304 20.3113 6.68282 19.8427 7.15148C19.374 7.62008 18.6142 7.62008 18.1456 7.15148L16.4485 5.45444Z" fill="#5591F8"/>
</svg>
