<svg width="24" height="24" viewBox="0 0 24 24" fill="none" xmlns="http://www.w3.org/2000/svg">
<path d="M3 9.36205C3 6.32045 5.01795 3.5 7.78125 3.5C9.6988 3.5 11.1217 4.76544 12 6.56055C12.8783 4.76556 14.3011 3.5 16.2188 3.5C18.9824 3.5 21 6.32095 21 9.36205C21 9.90135 20.9382 10.4277 20.8249 10.9396C19.8623 9.7561 18.3945 9 16.75 9C13.8505 9 11.5 11.3505 11.5 14.25C11.5 16.3268 12.7059 18.122 14.4558 18.9735C13.0617 19.9541 12 20.5 12 20.5C12 20.5 3 16.1523 3 9.36205Z"/>
<path d="M17.9993 14.5001C17.9993 15.0524 17.5516 15.5001 16.9993 15.5001C16.447 15.5001 15.9993 15.0524 15.9993 14.5001C15.9993 14.4407 16.0045 14.3825 16.0144 14.326L14.8047 13.1163L15.5118 12.4092L16.6613 13.5586C16.7668 13.5207 16.8806 13.5001 16.9993 13.5001C17.5516 13.5001 17.9993 13.9478 17.9993 14.5001Z"/>
<path fill-rule="evenodd" clip-rule="evenodd" d="M21 14.25C21 16.5972 19.0972 18.5 16.75 18.5C14.4028 18.5 12.5 16.5972 12.5 14.25C12.5 11.9028 14.4028 10 16.75 10C19.0972 10 21 11.9028 21 14.25ZM20 14.25C20 16.045 18.545 17.5 16.75 17.5C14.955 17.5 13.5 16.045 13.5 14.25C13.5 12.455 14.955 11 16.75 11C18.545 11 20 12.455 20 14.25Z"/>
</svg>
