<svg width="49" height="49" viewBox="0 0 49 49" fill="none" xmlns="http://www.w3.org/2000/svg">
<path fill-rule="evenodd" clip-rule="evenodd" d="M24.5005 13.5C26.9858 13.5 29.0005 11.4853 29.0005 9C29.0005 6.51472 26.9858 4.5 24.5005 4.5C22.0152 4.5 20.0005 6.51472 20.0005 9C20.0005 11.4853 22.0152 13.5 24.5005 13.5ZM38.4206 15.9404C38.7297 17.0008 38.1206 18.1111 37.0601 18.4201C34.6847 19.1124 32.5384 19.6337 30.5005 19.9812V31.4944V31.5V42.5C30.5005 43.5693 29.6594 44.4495 28.5911 44.498C27.5229 44.5464 26.6055 43.746 26.5087 42.6811L25.5087 31.6811C25.5032 31.6206 25.5005 31.5602 25.5005 31.5H23.5005C23.5005 31.5602 23.4978 31.6206 23.4923 31.6811L22.4923 42.6811C22.3955 43.746 21.4781 44.5464 20.4099 44.498C19.3417 44.4495 18.5005 43.5693 18.5005 42.5V19.9443C16.4679 19.5938 14.3293 19.083 11.9658 18.4272C10.9014 18.1319 10.278 17.0296 10.5733 15.9653C10.8687 14.9009 11.9709 14.2775 13.0353 14.5728C17.6436 15.8515 21.1063 16.4845 24.5092 16.4997C27.9052 16.5149 31.3592 15.9152 35.9409 14.5799C37.0014 14.2708 38.1116 14.8799 38.4206 15.9404Z"/>
</svg>
