<svg width="49" height="49" viewBox="0 0 49 49" fill="none" xmlns="http://www.w3.org/2000/svg">
<path d="M28.5 8.5C28.5 10.7091 26.7091 12.5 24.5 12.5C22.2909 12.5 20.5 10.7091 20.5 8.5C20.5 6.29086 22.2909 4.5 24.5 4.5C26.7091 4.5 28.5 6.29086 28.5 8.5Z"/>
<path d="M18.5 19.3206C18.2833 19.8328 18.0909 20.5103 17.9363 21.315C17.5295 23.4313 17.5 25.773 17.5 26.5C17.5 27.6046 16.6046 28.5 15.5 28.5C14.3954 28.5 13.5 27.6046 13.5 26.5C13.5 25.727 13.526 23.0687 14.0082 20.56C14.2458 19.3236 14.6243 17.9534 15.273 16.8428C15.9241 15.7281 17.095 14.5 18.9444 14.5H30.0556C31.905 14.5 33.0759 15.7281 33.727 16.8428C34.3757 17.9534 34.7542 19.3236 34.9918 20.56C35.474 23.0687 35.5 25.727 35.5 26.5C35.5 27.6046 34.6046 28.5 33.5 28.5C32.3954 28.5 31.5 27.6046 31.5 26.5C31.5 25.773 31.4705 23.4313 31.0637 21.315C30.9091 20.5103 30.7167 19.8328 30.5 19.3206V42.5C30.5 43.5747 29.6507 44.4573 28.5768 44.4985C27.5028 44.5398 26.5883 43.7249 26.5059 42.6534L25.5059 29.6534C25.502 29.6022 25.5 29.551 25.5 29.5H23.5C23.5 29.551 23.498 29.6022 23.4941 29.6534L22.4941 42.6534C22.4117 43.7249 21.4972 44.5398 20.4232 44.4985C19.3493 44.4573 18.5 43.5747 18.5 42.5V19.3206Z"/>
</svg>
