<svg width="49" height="49" viewBox="0 0 49 49" fill="none" xmlns="http://www.w3.org/2000/svg">
<path fill-rule="evenodd" clip-rule="evenodd" d="M24.5005 13.5C26.9858 13.5 29.0005 11.4853 29.0005 9C29.0005 6.51472 26.9858 4.5 24.5005 4.5C22.0152 4.5 20.0005 6.51472 20.0005 9C20.0005 11.4853 22.0152 13.5 24.5005 13.5ZM37.0601 17.5799C38.1206 17.8889 38.7297 18.9992 38.4206 20.0596C38.1116 21.1201 37.0014 21.7292 35.9409 21.4201C34.8494 21.102 33.8218 20.8256 32.8438 20.5894L32.8917 20.7384C34.1997 24.8151 35.5287 28.9572 33.3177 32.5289L30.9508 42.9432C30.7251 43.9362 29.7894 44.6011 28.7775 44.4875C27.7656 44.374 27.0005 43.5183 27.0005 42.5V36.4302C26.2047 36.5 25.3767 36.5 24.5005 36.5C23.8063 36.5 23.1422 36.5 22.5005 36.4653V42.5C22.5005 43.5183 21.7354 44.374 20.7235 44.4875C19.7116 44.6011 18.7759 43.9362 18.5502 42.9432L16.4106 33.5287C13.2202 29.7431 14.6774 25.2016 16.1094 20.7384L16.1463 20.6234C15.1644 20.855 14.1323 21.1228 13.0353 21.4272C11.9709 21.7225 10.8687 21.0991 10.5733 20.0347C10.278 18.9704 10.9014 17.8681 11.9658 17.5728C16.7301 16.2508 20.5808 15.5178 24.4913 15.5003C28.4088 15.4828 32.2685 16.1834 37.0601 17.5799Z"/>
</svg>
