<svg width="48" height="49" viewBox="0 0 48 49" fill="none" xmlns="http://www.w3.org/2000/svg">
<path d="M30.5 13.5C32.9853 13.5 35 11.4853 35 9C35 6.51472 32.9853 4.5 30.5 4.5C28.0147 4.5 26 6.51472 26 9C26 11.4853 28.0147 13.5 30.5 13.5Z"/>
<path d="M21.4608 17.782C20.2133 18.0912 19.3626 18.5576 18.6758 19.1359C17.645 20.004 16.8141 21.2566 15.6899 23.2238C15.1419 24.1828 13.9202 24.516 12.9612 23.968C12.0021 23.4199 11.669 22.1982 12.217 21.2392C13.3355 19.2819 14.4669 17.4509 16.0992 16.0763C17.8035 14.6411 19.8889 13.8285 22.7031 13.5157C23.8788 13.3851 25.172 13.4114 26.3853 13.9529C27.659 14.5215 28.5883 15.5403 29.2224 16.902C30.0762 18.7355 30.7114 19.8271 31.2202 20.4592C31.4648 20.763 31.6359 20.9039 31.7325 20.967C31.8096 21.0173 31.842 21.0211 31.8545 21.0225L31.8559 21.0227C31.943 21.0333 32.2243 21.0223 33.0531 20.656C33.4137 20.4966 33.8081 20.3039 34.2897 20.0686L34.4049 20.0123C34.9261 19.7578 35.5227 19.4683 36.1889 19.1721C37.1982 18.7235 38.3802 19.1781 38.8288 20.1875C39.2774 21.1968 38.8229 22.3787 37.8135 22.8274C37.2182 23.0919 36.6773 23.3541 36.1603 23.6066L36.0296 23.6705C35.5686 23.8958 35.1048 24.1225 34.6702 24.3146C33.7695 24.7127 32.6188 25.1451 31.3724 24.9934C30.0569 24.8332 29.0424 24.0911 28.208 23.0938L25.4742 28.3663L29.2539 33.285C29.4794 33.5784 29.619 33.9285 29.6573 34.2965L30.49 42.2927C30.6044 43.3913 29.8065 44.3747 28.7079 44.489C27.6092 44.6035 26.6259 43.8056 26.5115 42.7069L25.7375 35.2736L23.4417 32.2861L23.4225 32.3232L23.338 32.1512L19.0956 26.6304C18.6716 26.0787 18.5648 25.3464 18.8136 24.6967L21.4608 17.782Z"/>
<path d="M18.4316 29.5068L16.9598 33.4673L11.1586 33.006C10.0575 32.9184 9.09396 33.7401 9.0064 34.8411C8.91883 35.9422 9.74046 36.9058 10.8415 36.9934L18.1495 37.5745C19.041 37.6454 19.8712 37.1158 20.1828 36.2775L21.3079 33.2498L18.4316 29.5068Z"/>
</svg>
