<svg width="49" height="49" viewBox="0 0 49 49" fill="none" xmlns="http://www.w3.org/2000/svg">
<path fill-rule="evenodd" clip-rule="evenodd" d="M12.5 15.4829C11.5171 15.4829 10.6896 15.8166 10.1054 16.4008C9.5306 16.9756 9.25 17.7356 9.25 18.4829C9.25 19.2303 9.5306 19.9902 10.1054 20.565C10.6896 21.1492 11.5171 21.4829 12.5 21.4829L16.501 21.4829C17.0569 21.4829 17.5 21.9277 17.5 22.4764V41.4829C17.5 42.4658 17.8337 43.2933 18.4179 43.8775C18.9927 44.4523 19.7526 44.7329 20.5 44.7329C21.2474 44.7329 22.0073 44.4523 22.5821 43.8775C23.1663 43.2933 23.5 42.4658 23.5 41.4829C23.5 39.969 23.5016 37.7874 23.7412 35.9901C23.8623 35.0819 24.0342 34.3575 24.2517 33.8863C24.3657 33.6394 24.4529 33.5373 24.5 33.4975C24.5471 33.5373 24.6343 33.6394 24.7483 33.8863C24.9658 34.3575 25.1377 35.0819 25.2588 35.9901C25.4984 37.7874 25.5 39.969 25.5 41.4829C25.5 42.4658 25.8337 43.2933 26.4179 43.8775C26.9927 44.4523 27.7526 44.7329 28.5 44.7329C29.2474 44.7329 30.0073 44.4523 30.5821 43.8775C31.1663 43.2933 31.5 42.4658 31.5 41.4829V22.4829C31.5 21.9306 31.9477 21.4829 32.5 21.4829H36.5C37.4829 21.4829 38.3104 21.1492 38.8946 20.565C39.4694 19.9902 39.75 19.2303 39.75 18.4829C39.75 17.7355 39.4694 16.9756 38.8946 16.4008C38.3104 15.8166 37.4829 15.4829 36.5 15.4829H12.5ZM24.5392 33.4746C24.5392 33.4746 24.5339 33.479 24.5223 33.4811C24.5332 33.4745 24.5392 33.4746 24.5392 33.4746ZM24.4777 33.4811C24.4661 33.479 24.4608 33.4746 24.4608 33.4746C24.4608 33.4746 24.4668 33.4745 24.4777 33.4811Z" fill="#5D76F5"/>
<path d="M24.5 4.48291C21.7386 4.48291 19.5 6.72149 19.5 9.48291C19.5 12.2443 21.7386 14.4829 24.5 14.4829C27.2614 14.4829 29.5 12.2443 29.5 9.48291C29.5 6.72149 27.2614 4.48291 24.5 4.48291Z" fill="#5D76F5"/>
</svg>
