<svg width="24" height="24" viewBox="0 0 24 24" fill="none" xmlns="http://www.w3.org/2000/svg">
<path fill-rule="evenodd" clip-rule="evenodd" d="M9.5 2C9.77615 2 10 2.22386 10 2.5V6.6716C10 7.202 9.7893 7.7107 9.4142 8.0858L9.1623 8.33775C8.52035 8.97965 8.52035 10.0204 9.1623 10.6623C9.66255 11.1625 10.4269 11.2866 11.0597 10.9702L11.1809 10.9096C11.6965 10.6518 12.3035 10.6518 12.8191 10.9096L12.9403 10.9702C13.5731 11.2866 14.3375 11.1625 14.8377 10.6623C15.4796 10.0204 15.4796 8.97965 14.8377 8.33775L14.5858 8.0858C14.2107 7.7107 14 7.202 14 6.6716V2.5C14 2.22386 14.2239 2 14.5 2C14.7761 2 15 2.22386 15 2.5V3.51213C18.4956 4.74763 21 8.08135 21 12C21 15.9186 18.4956 19.2524 15 20.4879V21.5C15 21.7761 14.7761 22 14.5 22C14.2239 22 14 21.7761 14 21.5V17.3284C14 16.798 14.2107 16.2893 14.5858 15.9142L14.8377 15.6623C15.4796 15.0204 15.4796 13.9797 14.8377 13.3378C14.3375 12.8375 13.5731 12.7134 12.9403 13.0299L12.8191 13.0905C12.3035 13.3483 11.6965 13.3483 11.1809 13.0905L11.0597 13.0299C10.4269 12.7134 9.66255 12.8375 9.1623 13.3378C8.52035 13.9797 8.52035 15.0204 9.1623 15.6623L9.4142 15.9142C9.7893 16.2893 10 16.798 10 17.3284V21.5C10 21.7761 9.77615 22 9.5 22C9.22385 22 9 21.7761 9 21.5V20.4879C5.5044 19.2524 3 15.9186 3 12C3 8.08135 5.5044 4.74763 9 3.51213V2.5C9 2.22386 9.22385 2 9.5 2Z" fill="#FF9B91"/>
</svg>
