<svg width="18" height="20" viewBox="0 0 18 20" fill="none" xmlns="http://www.w3.org/2000/svg">
<path fill-rule="evenodd" clip-rule="evenodd" d="M0 14.8698V7.25684H18V14.9308C18 18.0698 16.0241 19.9998 12.8628 19.9998H5.12733C1.99561 19.9998 0 18.0298 0 14.8698ZM4.95938 12.4098C4.50494 12.4308 4.12953 12.0698 4.10977 11.6108C4.10977 11.1508 4.46542 10.7708 4.91987 10.7498C5.36443 10.7498 5.72997 11.1008 5.73985 11.5498C5.7596 12.0108 5.40395 12.3908 4.95938 12.4098ZM9.01976 12.4098C8.56531 12.4308 8.1899 12.0698 8.17014 11.6108C8.17014 11.1508 8.5258 10.7708 8.98024 10.7498C9.42481 10.7498 9.79034 11.1008 9.80022 11.5498C9.81998 12.0108 9.46432 12.3908 9.01976 12.4098ZM13.0505 16.0898C12.596 16.0798 12.2305 15.6998 12.2305 15.2398C12.2206 14.7798 12.5862 14.4008 13.0406 14.3908H13.0505C13.5148 14.3908 13.8902 14.7708 13.8902 15.2398C13.8902 15.7098 13.5148 16.0898 13.0505 16.0898ZM8.17014 15.2398C8.1899 15.6998 8.56531 16.0608 9.01976 16.0398C9.46432 16.0208 9.81998 15.6408 9.80022 15.1808C9.79034 14.7308 9.42481 14.3798 8.98024 14.3798C8.5258 14.4008 8.17014 14.7798 8.17014 15.2398ZM4.09989 15.2398C4.11965 15.6998 4.49506 16.0608 4.94951 16.0398C5.39407 16.0208 5.74973 15.6408 5.72997 15.1808C5.72009 14.7308 5.35456 14.3798 4.90999 14.3798C4.45554 14.4008 4.09989 14.7798 4.09989 15.2398ZM12.2404 11.6008C12.2404 11.1408 12.596 10.7708 13.0505 10.7608C13.4951 10.7608 13.8507 11.1198 13.8705 11.5608C13.8804 12.0208 13.5247 12.4008 13.0801 12.4098C12.6257 12.4198 12.2503 12.0698 12.2404 11.6108V11.6008Z" fill="url(#paint0_linear_676_172)"/>
<path opacity="0.4" d="M0.00390625 7.25675C0.0167493 6.66975 0.0661455 5.50475 0.159011 5.12975C0.633215 3.02075 2.24353 1.68075 4.5454 1.48975H13.4565C15.7386 1.69075 17.3687 3.03975 17.8429 5.12975C17.9348 5.49475 17.9841 6.66875 17.997 7.25675H0.00390625Z" fill="url(#paint1_linear_676_172)"/>
<path d="M5.30562 4.59C5.74031 4.59 6.06633 4.261 6.06633 3.82V0.771C6.06633 0.33 5.74031 0 5.30562 0C4.87094 0 4.54492 0.33 4.54492 0.771V3.82C4.54492 4.261 4.87094 4.59 5.30562 4.59Z" fill="url(#paint2_linear_676_172)"/>
<path d="M12.6943 4.59C13.1191 4.59 13.455 4.261 13.455 3.82V0.771C13.455 0.33 13.1191 0 12.6943 0C12.2596 0 11.9336 0.33 11.9336 0.771V3.82C11.9336 4.261 12.2596 4.59 12.6943 4.59Z" fill="url(#paint3_linear_676_172)"/>
<defs>
<linearGradient id="paint0_linear_676_172" x1="-5.89381" y1="8.66646" x2="14.3539" y2="22.1088" gradientUnits="userSpaceOnUse">
<stop stop-color="#5DE1E7"/>
<stop offset="1" stop-color="#2F75FE"/>
</linearGradient>
<linearGradient id="paint1_linear_676_172" x1="-5.88763" y1="2.12769" x2="3.36875" y2="15.7013" gradientUnits="userSpaceOnUse">
<stop stop-color="#5DE1E7"/>
<stop offset="1" stop-color="#2F75FE"/>
</linearGradient>
<linearGradient id="paint2_linear_676_172" x1="4.04676" y1="0.507743" x2="6.45403" y2="0.882763" gradientUnits="userSpaceOnUse">
<stop stop-color="#5DE1E7"/>
<stop offset="1" stop-color="#2F75FE"/>
</linearGradient>
<linearGradient id="paint3_linear_676_172" x1="11.4354" y1="0.507743" x2="13.8427" y2="0.882763" gradientUnits="userSpaceOnUse">
<stop stop-color="#5DE1E7"/>
<stop offset="1" stop-color="#2F75FE"/>
</linearGradient>
</defs>
</svg>
