<svg width="12" height="12" viewBox="0 0 12 12" fill="none" xmlns="http://www.w3.org/2000/svg">
<path opacity="0.4" d="M7.20913 2.74488C6.97111 2.70091 6.75251 2.85281 6.7072 3.08515C6.66188 3.31749 6.81426 3.54433 7.0458 3.5898C7.74293 3.72571 8.28122 4.26534 8.41766 4.96485V4.96535C8.4565 5.16672 8.63377 5.31312 8.83793 5.31312C8.86532 5.31312 8.8927 5.31062 8.92059 5.30562C9.15214 5.25915 9.30451 5.03281 9.25919 4.79997C9.05553 3.75519 8.25134 2.94824 7.20913 2.74488Z" fill="url(#paint0_linear_603_63097)"/>
<path opacity="0.4" d="M7.17792 1.00396C7.06638 0.987976 6.95434 1.02095 6.86521 1.0919C6.77359 1.16386 6.71632 1.26778 6.70388 1.3842C6.67748 1.61954 6.84729 1.8324 7.08232 1.85888C8.70315 2.03975 9.96296 3.30239 10.1452 4.92827C10.1696 5.14612 10.3524 5.31051 10.5705 5.31051C10.5869 5.31051 10.6028 5.30951 10.6193 5.30751C10.7333 5.29502 10.8349 5.23856 10.9066 5.14862C10.9778 5.05868 11.0102 4.94676 10.9972 4.83234C10.7701 2.80373 9.2001 1.22931 7.17792 1.00396Z" fill="url(#paint1_linear_603_63097)"/>
<path fill-rule="evenodd" clip-rule="evenodd" d="M5.51587 6.48619C7.51041 8.48018 7.96289 6.17336 9.23282 7.44241C10.4571 8.66638 11.1608 8.9116 9.60962 10.4624C9.41532 10.6185 8.18081 12.4971 3.8423 8.15983C-0.496739 3.822 1.38079 2.58622 1.53698 2.39197C3.09193 0.836923 3.33293 1.54469 4.55725 2.76866C5.82718 4.03825 3.52133 4.49221 5.51587 6.48619Z" fill="url(#paint2_linear_603_63097)"/>
<defs>
<linearGradient id="paint0_linear_603_63097" x1="8.14901" y1="0.537133" x2="6.48946" y2="1.51102" gradientUnits="userSpaceOnUse">
<stop stop-color="#5CDAE8"/>
<stop offset="1" stop-color="#547BFE"/>
</linearGradient>
<linearGradient id="paint1_linear_603_63097" x1="9.12816" y1="-2.68189" x2="6.35052" y2="-1.0513" gradientUnits="userSpaceOnUse">
<stop stop-color="#5CDAE8"/>
<stop offset="1" stop-color="#547BFE"/>
</linearGradient>
<linearGradient id="paint2_linear_603_63097" x1="6.36341" y1="-6.61458" x2="0.233645" y2="-3.00638" gradientUnits="userSpaceOnUse">
<stop stop-color="#5CDAE8"/>
<stop offset="1" stop-color="#547BFE"/>
</linearGradient>
</defs>
</svg>
