<svg width="24" height="25" viewBox="0 0 24 25" fill="none" xmlns="http://www.w3.org/2000/svg">
<path fill-rule="evenodd" clip-rule="evenodd" d="M15.04 4.5515C16.05 4.9535 16.359 6.3535 16.772 6.8035C17.185 7.2535 17.776 7.4065 18.103 7.4065C19.841 7.4065 21.25 8.8155 21.25 10.5525V16.3475C21.25 18.6775 19.36 20.5675 17.03 20.5675H6.97C4.639 20.5675 2.75 18.6775 2.75 16.3475V10.5525C2.75 8.8155 4.159 7.4065 5.897 7.4065C6.223 7.4065 6.814 7.2535 7.228 6.8035C7.641 6.3535 7.949 4.9535 8.959 4.5515C9.97 4.1495 14.03 4.1495 15.04 4.5515Z" stroke="#333333" stroke-width="1.5" stroke-linecap="round" stroke-linejoin="round"/>
<path d="M17.4955 10H17.5045" stroke="#333333" stroke-width="2" stroke-linecap="round" stroke-linejoin="round"/>
<path fill-rule="evenodd" clip-rule="evenodd" d="M15.1783 13.6282C15.1783 11.8722 13.7553 10.4492 11.9993 10.4492C10.2433 10.4492 8.82031 11.8722 8.82031 13.6282C8.82031 15.3842 10.2433 16.8072 11.9993 16.8072C13.7553 16.8072 15.1783 15.3842 15.1783 13.6282Z" stroke="#333333" stroke-width="1.5" stroke-linecap="round" stroke-linejoin="round"/>
</svg>
