<svg width="24" height="24" viewBox="0 0 24 24" fill="none" xmlns="http://www.w3.org/2000/svg">
<path fill-rule="evenodd" clip-rule="evenodd" d="M14.2496 4.25C14.2496 5.49265 13.2422 6.5 11.9996 6.5C10.7569 6.5 9.74956 5.49265 9.74956 4.25C9.74956 3.00736 10.7569 2 11.9996 2C13.2422 2 14.2496 3.00736 14.2496 4.25ZM14.9996 17H12.6318L13.0037 21.0905C13.0521 21.623 13.5108 22.0232 14.0449 21.999C14.579 21.9748 14.9996 21.5347 14.9996 21V17ZM11.3673 17H8.99956V21C8.99956 21.5347 9.42016 21.9748 9.95426 21.999C10.4884 22.0232 10.9471 21.623 10.9955 21.0905L11.3673 17ZM17.9773 7H18.0227C18.0076 6.99965 17.9925 6.99965 17.9773 7ZM5.97656 7C5.99151 6.99965 6.00646 6.99965 6.02146 7H5.97656Z" fill="white"/>
<path fill-rule="evenodd" clip-rule="evenodd" d="M5.5 7.5C5.22385 7.5 5 7.72385 5 8V15.5C5 15.7761 5.22385 16 5.5 16H18.5C18.7761 16 19 15.7761 19 15.5V8C19 7.72385 18.7761 7.5 18.5 7.5H5.5ZM11.5 8.5V9.25H11.25C10.7846 9.25 10.2796 9.4004 9.9229 9.5301C9.73775 9.5974 9.57835 9.66455 9.4649 9.71495C9.408 9.74025 9.36225 9.76155 9.33005 9.7768C9.31395 9.78445 9.30125 9.7906 9.2922 9.795L9.28145 9.8003L9.2782 9.8019L9.2771 9.80245L9.27655 9.8027C9.27645 9.80275 9.2764 9.8028 9.5 10.25C9.7236 10.6972 9.72355 10.6973 9.7235 10.6973L9.72435 10.6968L9.73065 10.6938C9.7366 10.6909 9.7461 10.6863 9.7588 10.6803C9.78425 10.6682 9.82245 10.6504 9.87105 10.6288C9.9685 10.5855 10.106 10.5276 10.2646 10.4699C10.5954 10.3496 10.9654 10.25 11.25 10.25H11.5V11.25H11.1C10.5014 11.25 9.87325 11.5679 9.45335 11.8224C9.2306 11.9574 9.0394 12.0917 8.90395 12.1919C8.83595 12.2423 8.78135 12.2846 8.74315 12.3148C8.724 12.33 8.70895 12.3421 8.6983 12.3508L8.68565 12.3611L8.6819 12.3643L8.6807 12.3652L8.68025 12.3656C8.68015 12.3657 8.6799 12.3659 9 12.75C9.3201 13.1341 9.32005 13.1342 9.31995 13.1342L9.3213 13.1332L9.3291 13.1267C9.3365 13.1207 9.34805 13.1114 9.3635 13.0992C9.3944 13.0748 9.4406 13.0389 9.4992 12.9956C9.61685 12.9083 9.7819 12.7926 9.97165 12.6776C10.3767 12.4321 10.7987 12.25 11.1 12.25H11.5V13.3339C11.1493 13.4325 10.8126 13.6052 10.5397 13.8008C10.3398 13.9442 10.1543 14.1138 10.0138 14.3003C9.87955 14.4786 9.75 14.7212 9.75 15H10.75C10.75 15.0022 10.7499 15.004 10.7499 15.0055C10.7498 15.0068 10.7498 15.0077 10.7498 15.0085C10.7497 15.0096 10.7496 15.0102 10.7497 15.0102C10.7497 15.0102 10.7499 15.0096 10.7503 15.0085C10.753 15.0007 10.7649 14.9654 10.8126 14.9019C10.8778 14.8154 10.9829 14.7136 11.1224 14.6135C11.4026 14.4126 11.7438 14.2732 12.016 14.2502C12.2469 14.2559 12.5739 14.3823 12.8622 14.5919C13.0036 14.6947 13.1129 14.8017 13.182 14.8938C13.2326 14.9612 13.246 14.9994 13.2493 15.0087L13.2498 15.0099C13.25 15.0106 13.2501 15.011 13.2502 15.011C13.2505 15.0109 13.25 15.0072 13.25 15H14.25C14.25 14.7189 14.1162 14.4726 13.982 14.2937C13.8401 14.1046 13.6527 13.9303 13.4503 13.7831C13.1838 13.5892 12.8495 13.4128 12.5 13.3195V12.25H13.05C13.4244 12.25 13.8093 12.4331 14.1315 12.6593C14.2867 12.7682 14.4143 12.8778 14.5024 12.9599C14.5463 13.0006 14.5797 13.0339 14.6013 13.0561C14.6121 13.0672 14.6199 13.0753 14.6244 13.0802L14.6285 13.0847C14.6284 13.0846 14.6284 13.0845 15 12.75C15.3716 12.4155 15.3716 12.4154 15.3715 12.4153L15.3707 12.4145L15.3694 12.4131L15.3659 12.4092L15.3548 12.3973C15.3457 12.3875 15.3331 12.3742 15.3173 12.358C15.2856 12.3254 15.2404 12.2806 15.1835 12.2276C15.0702 12.1222 14.907 11.9818 14.7059 11.8407C14.3157 11.5669 13.7255 11.25 13.05 11.25H12.5V10.25H12.875C13.2221 10.25 13.5597 10.3506 13.8216 10.4608C13.9501 10.515 14.0546 10.5689 14.1255 10.6084C14.1608 10.6282 14.1874 10.6441 14.204 10.6544C14.2124 10.6595 14.2182 10.6632 14.2213 10.6652L14.2228 10.6662C14.2227 10.6661 14.2226 10.666 14.5 10.25C14.7774 9.83395 14.7772 9.8339 14.7771 9.8338L14.7764 9.8333L14.7751 9.83245L14.7716 9.8302L14.7614 9.8236C14.7531 9.8183 14.742 9.81125 14.7281 9.8027C14.7003 9.7856 14.6615 9.76245 14.6128 9.7353C14.5157 9.6811 14.3779 9.61005 14.2097 9.5392C13.8778 9.39945 13.4029 9.25 12.875 9.25H12.5005L12.5 8.5H11.5Z" fill="white"/>
</svg>
