<svg width="49" height="49" viewBox="0 0 49 49" fill="none" xmlns="http://www.w3.org/2000/svg">
<path fill-rule="evenodd" clip-rule="evenodd" d="M20.5 4.48291C18.8431 4.48291 17.5 5.82606 17.5 7.48291H13.5C11.8431 7.48291 10.5 8.82606 10.5 10.4829V41.4829C10.5 43.1398 11.8431 44.4829 13.5 44.4829H35.5C37.1569 44.4829 38.5 43.1398 38.5 41.4829V10.4829C38.5 8.82606 37.1569 7.48291 35.5 7.48291H31.5C31.5 5.82606 30.1569 4.48291 28.5 4.48291H20.5ZM19.5 7.48291C19.5 6.93063 19.9477 6.48291 20.5 6.48291H28.5C29.0523 6.48291 29.5 6.93063 29.5 7.48291V9.48291C29.5 10.0352 29.0523 10.4829 28.5 10.4829H20.5C19.9477 10.4829 19.5 10.0352 19.5 9.48291V7.48291ZM19.5 15.4829V18.4829H16.5V20.4829H19.5V23.4829H21.5V20.4829H24.5V18.4829H21.5V15.4829H19.5ZM17.5 26.4829C16.9477 26.4829 16.5 26.9306 16.5 27.4829C16.5 28.0352 16.9477 28.4829 17.5 28.4829H31.5C32.0523 28.4829 32.5 28.0352 32.5 27.4829C32.5 26.9306 32.0523 26.4829 31.5 26.4829H17.5ZM16.5 32.4829C16.5 31.9306 16.9477 31.4829 17.5 31.4829H31.5C32.0523 31.4829 32.5 31.9306 32.5 32.4829C32.5 33.0352 32.0523 33.4829 31.5 33.4829H17.5C16.9477 33.4829 16.5 33.0352 16.5 32.4829ZM17.5 36.4829C16.9477 36.4829 16.5 36.9306 16.5 37.4829C16.5 38.0352 16.9477 38.4829 17.5 38.4829H31.5C32.0523 38.4829 32.5 38.0352 32.5 37.4829C32.5 36.9306 32.0523 36.4829 31.5 36.4829H17.5Z" fill="#FF7EB4"/>
</svg>
