<svg width="49" height="49" viewBox="0 0 49 49" fill="none" xmlns="http://www.w3.org/2000/svg">
<path fill-rule="evenodd" clip-rule="evenodd" d="M14.9326 33.9245C14.0732 34.4521 13.5 35.4006 13.5 36.4829C13.5 38.1398 14.8431 39.4829 16.5 39.4829C18.1569 39.4829 19.5 38.1398 19.5 36.4829C19.5 34.9589 18.3636 33.7003 16.8919 33.5083C16.8591 33.3908 16.8249 33.2554 16.7901 33.1035C16.6703 32.5801 16.556 31.9161 16.4709 31.2341C16.3856 30.5508 16.3327 29.8733 16.3292 29.3204C16.3279 29.1177 16.3334 28.9411 16.3446 28.793C16.7293 28.6826 17.1151 28.5832 17.5 28.4955C17.9413 28.395 18.2025 28.9159 18.4141 29.338C18.4436 29.3968 18.4721 29.4536 18.5 29.5066H22.5639C23.4797 29.5064 23.9324 29.5065 24.3903 29.5066C24.8376 29.5067 25.2906 29.5068 26.1851 29.5066H30.2493C30.4775 29.0731 30.9972 28.381 31.5 28.4955C32.0363 28.6177 32.5745 28.7627 33.1089 28.9285L33.1056 28.9301C33.1044 28.9278 33.1045 28.9282 33.1057 28.9316C33.1104 28.9456 33.1324 29.011 33.1542 29.1528C33.1791 29.3142 33.1964 29.524 33.2035 29.7766C33.2177 30.2809 33.1894 30.8939 33.1297 31.5116C33.0699 32.1285 32.9811 32.7258 32.8811 33.1973C32.859 33.3017 32.8369 33.397 32.8152 33.4829H31.5C31.1212 33.4829 30.775 33.6969 30.6056 34.0357L29.6056 36.0357C29.5361 36.1745 29.5 36.3277 29.5 36.4829V38.4829C29.5 39.0352 29.9477 39.4829 30.5 39.4829H32.5V37.4829H31.5V36.719L32.118 35.4829H34.882L35.5 36.719V37.4829H34.5V39.4829H36.5C37.0523 39.4829 37.5 39.0352 37.5 38.4829V36.4829C37.5 36.3277 37.4639 36.1745 37.3944 36.0357L36.3944 34.0357C36.225 33.6969 35.8788 33.4829 35.5 33.4829H34.8643C34.9711 32.9502 35.06 32.3277 35.1203 31.7042C35.1856 31.0302 35.2198 30.3307 35.2027 29.7205L35.2019 29.693C39.1895 31.3778 42.5 34.149 42.5 37.0528V42.4829H6.5V37.0528C6.5 34.0205 10.1099 31.1328 14.331 29.4759C14.3424 30.0975 14.4013 30.8011 14.4862 31.4817C14.5779 32.2164 14.7029 32.9482 14.8406 33.5498C14.8701 33.6787 14.9008 33.8042 14.9326 33.9245ZM16.5 37.4976C17.0384 37.4976 17.5 37.0571 17.5 36.4829C17.5 35.9087 17.0384 35.4682 16.5 35.4682C15.9616 35.4682 15.5 35.9087 15.5 36.4829C15.5 37.0571 15.9616 37.4976 16.5 37.4976Z" fill="#FBAA60"/>
<path fill-rule="evenodd" clip-rule="evenodd" d="M24.5 24.4829C28.9183 24.4829 32.5 20.9012 32.5 16.4829C32.5 12.0646 28.9183 8.48291 24.5 8.48291C20.0817 8.48291 16.5 12.0646 16.5 16.4829C16.5 20.9012 20.0817 24.4829 24.5 24.4829ZM24.5 26.4829C30.0228 26.4829 34.5 22.0057 34.5 16.4829C34.5 10.9601 30.0228 6.48291 24.5 6.48291C18.9772 6.48291 14.5 10.9601 14.5 16.4829C14.5 22.0057 18.9772 26.4829 24.5 26.4829Z" fill="#FBAA60"/>
</svg>
