<svg width="49" height="49" viewBox="0 0 49 49" fill="none" xmlns="http://www.w3.org/2000/svg">
<path d="M20.75 14V2H40.25V47H8.75V14H20.75Z" fill="#4080FF"/>
<path d="M8.75 14L20.75 2V14H8.75Z" fill="#4080FF"/>
<path opacity="0.5" d="M8.75 14L20.75 2V14H8.75Z" fill="white"/>
<path opacity="0.12" d="M8.75 26V14H20.75L8.75 26Z" fill="#000064"/>
<path d="M22.25 20.75H16.25C16.0511 20.75 15.8603 20.671 15.7197 20.5303C15.579 20.3897 15.5 20.1989 15.5 20C15.5 19.8011 15.579 19.6103 15.7197 19.4697C15.8603 19.329 16.0511 19.25 16.25 19.25H22.25C22.4489 19.25 22.6397 19.329 22.7803 19.4697C22.921 19.6103 23 19.8011 23 20C23 20.1989 22.921 20.3897 22.7803 20.5303C22.6397 20.671 22.4489 20.75 22.25 20.75ZM32.75 26.75H16.25C16.0511 26.75 15.8603 26.671 15.7197 26.5303C15.579 26.3897 15.5 26.1989 15.5 26C15.5 25.8011 15.579 25.6103 15.7197 25.4697C15.8603 25.329 16.0511 25.25 16.25 25.25H32.75C32.9489 25.25 33.1397 25.329 33.2803 25.4697C33.421 25.6103 33.5 25.8011 33.5 26C33.5 26.1989 33.421 26.3897 33.2803 26.5303C33.1397 26.671 32.9489 26.75 32.75 26.75ZM32.75 32.75H16.25C16.0511 32.75 15.8603 32.671 15.7197 32.5303C15.579 32.3897 15.5 32.1989 15.5 32C15.5 31.8011 15.579 31.6103 15.7197 31.4697C15.8603 31.329 16.0511 31.25 16.25 31.25H32.75C32.9489 31.25 33.1397 31.329 33.2803 31.4697C33.421 31.6103 33.5 31.8011 33.5 32C33.5 32.1989 33.421 32.3897 33.2803 32.5303C33.1397 32.671 32.9489 32.75 32.75 32.75ZM29.75 38.75H16.25C16.0511 38.75 15.8603 38.671 15.7197 38.5303C15.579 38.3897 15.5 38.1989 15.5 38C15.5 37.8011 15.579 37.6103 15.7197 37.4697C15.8603 37.329 16.0511 37.25 16.25 37.25H29.75C29.9489 37.25 30.1397 37.329 30.2803 37.4697C30.421 37.6103 30.5 37.8011 30.5 38C30.5 38.1989 30.421 38.3897 30.2803 38.5303C30.1397 38.671 29.9489 38.75 29.75 38.75Z" fill="white"/>
</svg>
