<svg width="49" height="51" viewBox="0 0 49 51" fill="none" xmlns="http://www.w3.org/2000/svg">
<g clip-path="url(#clip0_603_44271)">
<path d="M7.30693 16.7661H21.293C21.7599 16.7661 22.1993 16.9485 22.4916 17.2644L24.4669 19.3907C24.6611 19.6006 24.9553 19.7222 25.2672 19.7222H47.1016C47.8745 19.7222 48.5022 20.2656 48.5022 20.9364V47.4433C48.5022 48.891 47.1487 50.064 45.4814 50.064H7.99545C6.82634 50.064 5.88086 49.2421 5.88086 48.228V18.0039C5.88086 17.3212 6.51837 16.7661 7.30693 16.7661Z" fill="#4080EF"/>
<path d="M17.3027 9.03247L11.418 14.9172V37.4676H40.265V9.03247H17.3027Z" fill="#E7F0FF"/>
<path d="M17.3027 14.9172V9.03247L11.418 14.9172H17.3027Z" fill="#B9CFE6"/>
<path d="M2.39873 23.4099H41.1557C42.0698 23.4099 42.8525 23.9748 43.0212 24.7536L48.0782 48.1141C48.2979 49.1283 47.4014 50.0659 46.2127 50.0659H7.4557C6.5416 50.0659 5.75893 49.501 5.59023 48.7222L0.533265 25.3617C0.313567 24.3475 1.21001 23.4099 2.39873 23.4099Z" fill="#6B9AEB"/>
<path d="M26.7091 16.9733C26.705 16.1507 26.6993 15.3282 26.6944 14.5045C26.6911 14.0199 26.3774 13.558 26.0008 13.5798C25.6276 13.6015 25.304 13.9873 25.3073 14.5045C25.3016 15.3249 25.2967 16.1464 25.2926 16.9668C24.6798 16.9668 24.0661 16.97 23.4524 16.982C23.0849 16.9744 22.7344 17.4177 22.7507 17.9176C22.767 18.4305 23.0604 18.8456 23.4524 18.8532C24.0645 18.8651 24.6757 18.8695 25.2877 18.8684C25.2877 19.6834 25.2894 20.4983 25.2991 21.3133C25.2934 21.8034 25.626 22.2706 26.0008 22.2489C26.3855 22.2272 26.6968 21.836 26.7025 21.3133C26.7123 20.4962 26.7139 19.679 26.7139 18.8619C27.3292 18.8564 27.9437 18.8499 28.559 18.8423C28.9225 18.838 29.2689 18.4196 29.2526 17.9176C29.2363 17.4199 28.947 16.9885 28.559 16.9929C27.9421 16.9853 27.326 16.9787 26.7091 16.9733Z" fill="#4080EF"/>
</g>
<defs>
<clipPath id="clip0_603_44271">
<rect width="48" height="49.1279" fill="white" transform="translate(0.5 0.936035)"/>
</clipPath>
</defs>
</svg>
