<svg width="37" height="37" viewBox="0 0 37 37" fill="none" xmlns="http://www.w3.org/2000/svg">
<g clip-path="url(#clip0_603_50916)">
<path d="M5.60471 11.9495H16.0943C16.4444 11.9495 16.774 12.0864 16.9932 12.3232L18.4747 13.918C18.6203 14.0754 18.841 14.1666 19.0749 14.1666H35.4507C36.0304 14.1666 36.5012 14.5741 36.5012 15.0773V34.9575C36.5012 36.0432 35.486 36.923 34.2355 36.923H6.1211C5.24427 36.923 4.53516 36.3065 4.53516 35.5459V12.8779C4.53516 12.3659 5.01329 11.9495 5.60471 11.9495Z" fill="#4080EF"/>
<path d="M13.1011 6.14939L8.6875 10.563V27.4758H30.3228V6.14939H13.1011Z" fill="#E7F0FF"/>
<path d="M13.1011 10.563V6.14939L8.6875 10.563H13.1011Z" fill="#B9CFE6"/>
<path d="M1.92405 16.9324H30.9918C31.6774 16.9324 32.2644 17.3562 32.3909 17.9402L36.1836 35.4606C36.3484 36.2212 35.6761 36.9244 34.7845 36.9244H5.71678C5.0312 36.9244 4.4442 36.5007 4.31767 35.9167L0.524949 18.3963C0.360176 17.6357 1.03251 16.9324 1.92405 16.9324Z" fill="#6B9AEB"/>
<path d="M20.7091 12.105C20.705 11.4881 20.6993 10.8711 20.6944 10.2534C20.6911 9.8899 20.3774 9.54353 20.0008 9.55983C19.6276 9.57613 19.304 9.86545 19.3073 10.2534C19.3016 10.8687 19.2967 11.4848 19.2926 12.1001C18.6798 12.1001 18.0661 12.1025 17.4524 12.1115C17.0849 12.1058 16.7344 12.4383 16.7507 12.8132C16.767 13.1979 17.0604 13.5092 17.4524 13.5149C18.0645 13.5239 18.6757 13.5271 19.2877 13.5263C19.2877 14.1375 19.2894 14.7488 19.2991 15.36C19.2934 15.7275 19.626 16.078 20.0008 16.0617C20.3855 16.0454 20.6968 15.752 20.7025 15.36C20.7123 14.7471 20.7139 14.1343 20.7139 13.5214C21.3292 13.5173 21.9437 13.5124 22.559 13.5067C22.9225 13.5035 23.2689 13.1897 23.2526 12.8132C23.2363 12.4399 22.947 12.1164 22.559 12.1197C21.9421 12.114 21.326 12.1091 20.7091 12.105Z" fill="#4080EF"/>
</g>
<defs>
<clipPath id="clip0_603_50916">
<rect width="36" height="36.8459" fill="white" transform="translate(0.5 0.077034)"/>
</clipPath>
</defs>
</svg>
