<svg width="24" height="24" viewBox="0 0 24 24" fill="none" xmlns="http://www.w3.org/2000/svg">
<path fill-rule="evenodd" clip-rule="evenodd" d="M8.5 3.5C8.5 2.67158 9.17155 2 10 2H14C14.8285 2 15.5 2.67158 15.5 3.5H17C17.8285 3.5 18.5 4.17158 18.5 5V12.5H17.5V5C17.5 4.72386 17.2761 4.5 17 4.5H15.5C15.5 5.32845 14.8285 6 14 6H10C9.17155 6 8.5 5.32845 8.5 4.5H7C6.72385 4.5 6.5 4.72386 6.5 5V19C6.5 19.2761 6.72385 19.5 7 19.5H13V20.5H7C6.17155 20.5 5.5 19.8284 5.5 19V5C5.5 4.17158 6.17155 3.5 7 3.5H8.5ZM10 3C9.72385 3 9.5 3.22386 9.5 3.5V4.5C9.5 4.77614 9.72385 5 10 5H14C14.2761 5 14.5 4.77614 14.5 4.5V3.5C14.5 3.22386 14.2761 3 14 3H10ZM11.5 8V9.5H10V10.5H11.5V12H12.5V10.5H14V9.5H12.5V8H11.5ZM14 13.5C13.7239 13.5 13.5 13.7239 13.5 14V17.3944C13.5 18.5647 14.0849 19.6575 15.0585 20.3067L16.7227 21.416C16.8906 21.528 17.1094 21.528 17.2773 21.416L18.9415 20.3067C19.9151 19.6575 20.5 18.5647 20.5 17.3944V14C20.5 13.7239 20.2761 13.5 20 13.5H14ZM18.8535 16.3536L16.8535 18.3536C16.6582 18.5488 16.3417 18.5488 16.1464 18.3536L15.1464 17.3536L15.8535 16.6465L16.5 17.2929L18.1464 15.6465L18.8535 16.3536Z"/>
</svg>
