<svg width="16" height="17" viewBox="0 0 16 17" fill="none" xmlns="http://www.w3.org/2000/svg">
<path d="M9.33417 7.45327H8.6675V6.7866C8.6675 6.60979 8.59726 6.44022 8.47224 6.3152C8.34721 6.19017 8.17765 6.11993 8.00083 6.11993C7.82402 6.11993 7.65445 6.19017 7.52943 6.3152C7.40441 6.44022 7.33417 6.60979 7.33417 6.7866V7.45327H6.6675C6.49069 7.45327 6.32112 7.52351 6.1961 7.64853C6.07107 7.77355 6.00083 7.94312 6.00083 8.11993C6.00083 8.29674 6.07107 8.46631 6.1961 8.59134C6.32112 8.71636 6.49069 8.7866 6.6675 8.7866H7.33417V9.45327C7.33417 9.63008 7.40441 9.79965 7.52943 9.92467C7.65445 10.0497 7.82402 10.1199 8.00083 10.1199C8.17765 10.1199 8.34721 10.0497 8.47224 9.92467C8.59726 9.79965 8.6675 9.63008 8.6675 9.45327V8.7866H9.33417C9.51098 8.7866 9.68055 8.71636 9.80557 8.59134C9.9306 8.46631 10.0008 8.29674 10.0008 8.11993C10.0008 7.94312 9.9306 7.77355 9.80557 7.64853C9.68055 7.52351 9.51098 7.45327 9.33417 7.45327ZM13.4408 3.45327C12.73 2.74974 11.7911 2.32345 10.7935 2.25132C9.79598 2.1792 8.80551 2.46598 8.00083 3.05993C7.15261 2.42903 6.09683 2.14294 5.04611 2.25929C3.9954 2.37564 3.02779 2.88579 2.33815 3.68699C1.64851 4.4882 1.28805 5.52095 1.32937 6.57728C1.37069 7.63361 1.81071 8.63505 2.56083 9.37993L6.56083 13.4133C6.93584 13.7878 7.44417 13.9982 7.97417 13.9982C8.50417 13.9982 9.0125 13.7878 9.3875 13.4133L13.3875 9.37993C13.7815 8.99503 14.0955 8.53607 14.3115 8.02942C14.5275 7.52278 14.6412 6.97844 14.6462 6.42769C14.6511 5.87694 14.5472 5.33064 14.3403 4.82019C14.1335 4.30974 13.8278 3.8452 13.4408 3.45327ZM12.5008 8.4266L8.50083 12.4266C8.43886 12.4891 8.36513 12.5387 8.28389 12.5725C8.20265 12.6064 8.11551 12.6238 8.0275 12.6238C7.93949 12.6238 7.85236 12.6064 7.77112 12.5725C7.68988 12.5387 7.61614 12.4891 7.55417 12.4266L3.55417 8.4266C3.03134 7.89216 2.73857 7.17424 2.73857 6.4266C2.73857 5.67896 3.03134 4.96104 3.55417 4.4266C4.08694 3.90059 4.80548 3.60565 5.55417 3.60565C6.30285 3.60565 7.0214 3.90059 7.55417 4.4266C7.61614 4.48909 7.68988 4.53868 7.77112 4.57253C7.85236 4.60637 7.93949 4.6238 8.0275 4.6238C8.11551 4.6238 8.20265 4.60637 8.28389 4.57253C8.36513 4.53868 8.43886 4.48909 8.50083 4.4266C9.0336 3.90059 9.75215 3.60565 10.5008 3.60565C11.2495 3.60565 11.9681 3.90059 12.5008 4.4266C13.0277 4.96163 13.323 5.68239 13.323 6.43327C13.323 7.18415 13.0277 7.9049 12.5008 8.43993V8.4266Z" fill="url(#paint0_linear_603_42004)"/>
<defs>
<linearGradient id="paint0_linear_603_42004" x1="-3.0353" y1="3.53525" x2="13.788" y2="12.4879" gradientUnits="userSpaceOnUse">
<stop stop-color="#5DE1E7"/>
<stop offset="1" stop-color="#2F75FE"/>
</linearGradient>
</defs>
</svg>
