<svg width="16" height="17" viewBox="0 0 16 17" fill="none" xmlns="http://www.w3.org/2000/svg">
<path d="M9.33417 7.83333H8.6675V7.16667C8.6675 6.98986 8.59726 6.82029 8.47224 6.69526C8.34721 6.57024 8.17765 6.5 8.00083 6.5C7.82402 6.5 7.65445 6.57024 7.52943 6.69526C7.40441 6.82029 7.33417 6.98986 7.33417 7.16667V7.83333H6.6675C6.49069 7.83333 6.32112 7.90357 6.1961 8.0286C6.07107 8.15362 6.00083 8.32319 6.00083 8.5C6.00083 8.67681 6.07107 8.84638 6.1961 8.9714C6.32112 9.09643 6.49069 9.16667 6.6675 9.16667H7.33417V9.83333C7.33417 10.0101 7.40441 10.1797 7.52943 10.3047C7.65445 10.4298 7.82402 10.5 8.00083 10.5C8.17765 10.5 8.34721 10.4298 8.47224 10.3047C8.59726 10.1797 8.6675 10.0101 8.6675 9.83333V9.16667H9.33417C9.51098 9.16667 9.68055 9.09643 9.80557 8.9714C9.9306 8.84638 10.0008 8.67681 10.0008 8.5C10.0008 8.32319 9.9306 8.15362 9.80557 8.0286C9.68055 7.90357 9.51098 7.83333 9.33417 7.83333ZM13.4408 3.83333C12.73 3.1298 11.7911 2.70351 10.7935 2.63139C9.79598 2.55926 8.80551 2.84605 8.00083 3.44C7.15261 2.80909 6.09683 2.52301 5.04611 2.63936C3.9954 2.75571 3.02779 3.26585 2.33815 4.06706C1.64851 4.86826 1.28805 5.90101 1.32937 6.95734C1.37069 8.01367 1.81071 9.01511 2.56083 9.76L6.56083 13.7933C6.93584 14.1679 7.44417 14.3782 7.97417 14.3782C8.50417 14.3782 9.0125 14.1679 9.3875 13.7933L13.3875 9.76C13.7815 9.3751 14.0955 8.91614 14.3115 8.40949C14.5275 7.90284 14.6412 7.3585 14.6462 6.80775C14.6511 6.257 14.5472 5.71071 14.3403 5.20025C14.1335 4.6898 13.8278 4.22526 13.4408 3.83333ZM12.5008 8.80667L8.50083 12.8067C8.43886 12.8692 8.36513 12.9187 8.28389 12.9526C8.20265 12.9864 8.11551 13.0039 8.0275 13.0039C7.93949 13.0039 7.85236 12.9864 7.77112 12.9526C7.68988 12.9187 7.61614 12.8692 7.55417 12.8067L3.55417 8.80667C3.03134 8.27223 2.73857 7.55431 2.73857 6.80667C2.73857 6.05902 3.03134 5.3411 3.55417 4.80667C4.08694 4.28066 4.80548 3.98571 5.55417 3.98571C6.30285 3.98571 7.0214 4.28066 7.55417 4.80667C7.61614 4.86915 7.68988 4.91875 7.77112 4.95259C7.85236 4.98644 7.93949 5.00387 8.0275 5.00387C8.11551 5.00387 8.20265 4.98644 8.28389 4.95259C8.36513 4.91875 8.43886 4.86915 8.50083 4.80667C9.0336 4.28066 9.75215 3.98571 10.5008 3.98571C11.2495 3.98571 11.9681 4.28066 12.5008 4.80667C13.0277 5.3417 13.323 6.06246 13.323 6.81333C13.323 7.56421 13.0277 8.28497 12.5008 8.82V8.80667Z" fill="white"/>
</svg>
