<svg width="17" height="17" viewBox="0 0 17 17" fill="none" xmlns="http://www.w3.org/2000/svg">
<path d="M10.1682 7.83364H9.50149V7.16697C9.50149 6.99016 9.43125 6.82059 9.30622 6.69557C9.1812 6.57054 9.01163 6.50031 8.83482 6.50031C8.65801 6.50031 8.48844 6.57054 8.36341 6.69557C8.23839 6.82059 8.16815 6.99016 8.16815 7.16697V7.83364H7.50149C7.32467 7.83364 7.15511 7.90388 7.03008 8.0289C6.90506 8.15392 6.83482 8.32349 6.83482 8.5003C6.83482 8.67712 6.90506 8.84668 7.03008 8.97171C7.15511 9.09673 7.32467 9.16697 7.50149 9.16697H8.16815V9.83364C8.16815 10.0104 8.23839 10.18 8.36341 10.305C8.48844 10.4301 8.65801 10.5003 8.83482 10.5003C9.01163 10.5003 9.1812 10.4301 9.30622 10.305C9.43125 10.18 9.50149 10.0104 9.50149 9.83364V9.16697H10.1682C10.345 9.16697 10.5145 9.09673 10.6396 8.97171C10.7646 8.84668 10.8348 8.67712 10.8348 8.5003C10.8348 8.32349 10.7646 8.15392 10.6396 8.0289C10.5145 7.90388 10.345 7.83364 10.1682 7.83364ZM14.2748 3.83364C13.564 3.13011 12.625 2.70382 11.6275 2.63169C10.63 2.55957 9.6395 2.84635 8.83482 3.44031C7.98659 2.8094 6.93081 2.52331 5.8801 2.63966C4.82938 2.75601 3.86178 3.26616 3.17213 4.06736C2.48249 4.86857 2.12203 5.90132 2.16335 6.95765C2.20467 8.01398 2.6447 9.01542 3.39482 9.7603L7.39482 13.7936C7.76982 14.1682 8.27815 14.3785 8.80815 14.3785C9.33815 14.3785 9.84648 14.1682 10.2215 13.7936L14.2215 9.7603C14.6154 9.3754 14.9294 8.91644 15.1454 8.40979C15.3615 7.90315 15.4752 7.35881 15.4802 6.80806C15.4851 6.25731 15.3812 5.71101 15.1743 5.20056C14.9675 4.69011 14.6618 4.22557 14.2748 3.83364ZM13.3348 8.80697L9.33482 12.807C9.27284 12.8695 9.19911 12.9191 9.11787 12.9529C9.03663 12.9867 8.94949 13.0042 8.86149 13.0042C8.77348 13.0042 8.68634 12.9867 8.6051 12.9529C8.52386 12.9191 8.45013 12.8695 8.38815 12.807L4.38815 8.80697C3.86532 8.27253 3.57256 7.55462 3.57256 6.80697C3.57256 6.05933 3.86532 5.34141 4.38815 4.80697C4.92092 4.28096 5.63947 3.98602 6.38815 3.98602C7.13684 3.98602 7.85538 4.28096 8.38815 4.80697C8.45013 4.86946 8.52386 4.91905 8.6051 4.9529C8.68634 4.98675 8.77348 5.00417 8.86149 5.00417C8.94949 5.00417 9.03663 4.98675 9.11787 4.9529C9.19911 4.91905 9.27284 4.86946 9.33482 4.80697C9.86759 4.28096 10.5861 3.98602 11.3348 3.98602C12.0835 3.98602 12.802 4.28096 13.3348 4.80697C13.8617 5.342 14.157 6.06276 14.157 6.81364C14.157 7.56452 13.8617 8.28527 13.3348 8.8203V8.80697Z" fill="#4F5675"/>
</svg>
