<svg width="17" height="17" viewBox="0 0 17 17" fill="none" xmlns="http://www.w3.org/2000/svg">
<path fill-rule="evenodd" clip-rule="evenodd" d="M3.5 14.8333C3.5 14.6492 3.64924 14.5 3.83333 14.5H13.8333C14.0174 14.5 14.1667 14.6492 14.1667 14.8333C14.1667 15.0174 14.0174 15.1667 13.8333 15.1667H3.83333C3.64924 15.1667 3.5 15.0174 3.5 14.8333Z" fill="#4F5675"/>
<path fill-rule="evenodd" clip-rule="evenodd" d="M7.16797 3.16667H4.16797V2.5H7.16797V3.16667Z" fill="#4F5675"/>
<path fill-rule="evenodd" clip-rule="evenodd" d="M13.5 3.16667H10.5V2.5H13.5V3.16667Z" fill="#4F5675"/>
<path fill-rule="evenodd" clip-rule="evenodd" d="M7.16732 4.16667H4.83398V3.5H7.16732V4.16667Z" fill="#4F5675"/>
<path fill-rule="evenodd" clip-rule="evenodd" d="M12.8333 4.16667H10.5V3.5H12.8333V4.16667Z" fill="#4F5675"/>
<path fill-rule="evenodd" clip-rule="evenodd" d="M11.5013 13.1667H6.16797V12.5H11.5013V13.1667Z" fill="#4F5675"/>
<path fill-rule="evenodd" clip-rule="evenodd" d="M10.5 1.83301H7.16667C6.79847 1.83301 6.5 2.13148 6.5 2.49967V5.83301C6.5 6.20121 6.79847 6.49967 7.16667 6.49967H10.5C10.8682 6.49967 11.1667 6.20121 11.1667 5.83301V2.49967C11.1667 2.13148 10.8682 1.83301 10.5 1.83301ZM9.16667 2.83301V3.83301H10.1667V4.49967H9.16667V5.49967H8.5V4.49967H7.5V3.83301H8.5V2.83301H9.16667Z" fill="#4F5675"/>
<path fill-rule="evenodd" clip-rule="evenodd" d="M9.5 2.49967V3.49967H10.5V4.83301H9.5V5.83301H8.16667V4.83301H7.16667V3.49967H8.16667V2.49967H9.5ZM8.5 3.83301H7.5V4.49967H8.5V5.49967H9.16667V4.49967H10.1667V3.83301H9.16667V2.83301H8.5V3.83301ZM10.5 2.16634H7.16667C6.98257 2.16634 6.83333 2.31558 6.83333 2.49967V5.83301C6.83333 6.01711 6.98257 6.16634 7.16667 6.16634H10.5C10.6841 6.16634 10.8333 6.01711 10.8333 5.83301V2.49967C10.8333 2.31558 10.6841 2.16634 10.5 2.16634ZM7.16667 1.83301H10.5C10.8682 1.83301 11.1667 2.13148 11.1667 2.49967V5.83301C11.1667 6.20121 10.8682 6.49967 10.5 6.49967H7.16667C6.79847 6.49967 6.5 6.20121 6.5 5.83301V2.49967C6.5 2.13148 6.79847 1.83301 7.16667 1.83301Z" fill="#4F5675"/>
<path d="M6.16797 7.16699H7.5013V8.16699H6.16797V7.16699Z" fill="#4F5675"/>
<path d="M6.16797 8.83301H7.5013V9.83301H6.16797V8.83301Z" fill="#4F5675"/>
<path d="M6.16797 10.5H7.5013V11.5H6.16797V10.5Z" fill="#4F5675"/>
<path d="M8.16797 7.16699H9.5013V8.16699H8.16797V7.16699Z" fill="#4F5675"/>
<path d="M8.16797 8.83301H9.5013V9.83301H8.16797V8.83301Z" fill="#4F5675"/>
<path d="M8.16797 10.5H9.5013V11.5H8.16797V10.5Z" fill="#4F5675"/>
<path d="M10.168 7.16699H11.5013V8.16699H10.168V7.16699Z" fill="#4F5675"/>
<path d="M10.168 8.83301H11.5013V9.83301H10.168V8.83301Z" fill="#4F5675"/>
<path d="M10.168 10.5H11.5013V11.5H10.168V10.5Z" fill="#4F5675"/>
<path fill-rule="evenodd" clip-rule="evenodd" d="M4.83398 14.4997V2.83301H5.50065V14.4997H4.83398Z" fill="#4F5675"/>
<path fill-rule="evenodd" clip-rule="evenodd" d="M12.168 14.4997V2.83301H12.8346V14.4997H12.168Z" fill="#4F5675"/>
<path fill-rule="evenodd" clip-rule="evenodd" d="M8.5 12.5H6.5V14.5H8.5V12.5ZM9.16667 12.5V14.5H11.1667V12.5H9.16667Z" fill="#4F5675"/>
<path fill-rule="evenodd" clip-rule="evenodd" d="M10.5 14.5003V13.167H11.1667V14.5003H10.5Z" fill="#4F5675"/>
<path fill-rule="evenodd" clip-rule="evenodd" d="M6.5 14.5003V13.167H7.16667V14.5003H6.5Z" fill="#4F5675"/>
</svg>
