<svg width="16" height="17" viewBox="0 0 16 17" fill="none" xmlns="http://www.w3.org/2000/svg">
<path fill-rule="evenodd" clip-rule="evenodd" d="M2.66602 14.8333C2.66602 14.6492 2.81526 14.5 2.99935 14.5H12.9993C13.1834 14.5 13.3327 14.6492 13.3327 14.8333C13.3327 15.0174 13.1834 15.1667 12.9993 15.1667H2.99935C2.81526 15.1667 2.66602 15.0174 2.66602 14.8333Z" fill="white"/>
<path fill-rule="evenodd" clip-rule="evenodd" d="M6.33398 3.16667H3.33398V2.5H6.33398V3.16667Z" fill="white"/>
<path fill-rule="evenodd" clip-rule="evenodd" d="M12.666 3.16667H9.66602V2.5H12.666V3.16667Z" fill="white"/>
<path fill-rule="evenodd" clip-rule="evenodd" d="M6.33333 4.16667H4V3.5H6.33333V4.16667Z" fill="white"/>
<path fill-rule="evenodd" clip-rule="evenodd" d="M11.9993 4.16667H9.66602V3.5H11.9993V4.16667Z" fill="white"/>
<path fill-rule="evenodd" clip-rule="evenodd" d="M10.6673 13.1667H5.33398V12.5H10.6673V13.1667Z" fill="white"/>
<path fill-rule="evenodd" clip-rule="evenodd" d="M9.66602 1.83333H6.33268C5.96448 1.83333 5.66602 2.1318 5.66602 2.49999V5.83333C5.66602 6.20153 5.96448 6.49999 6.33268 6.49999H9.66602C10.0342 6.49999 10.3327 6.20153 10.3327 5.83333V2.49999C10.3327 2.1318 10.0342 1.83333 9.66602 1.83333ZM8.33268 2.83333V3.83333H9.33268V4.49999H8.33268V5.49999H7.66602V4.49999H6.66602V3.83333H7.66602V2.83333H8.33268Z" fill="white"/>
<path fill-rule="evenodd" clip-rule="evenodd" d="M8.66602 2.49999V3.49999H9.66602V4.83333H8.66602V5.83333H7.33268V4.83333H6.33268V3.49999H7.33268V2.49999H8.66602ZM7.66602 3.83333H6.66602V4.49999H7.66602V5.49999H8.33268V4.49999H9.33268V3.83333H8.33268V2.83333H7.66602V3.83333ZM9.66602 2.16666H6.33268C6.14858 2.16666 5.99935 2.3159 5.99935 2.49999V5.83333C5.99935 6.01743 6.14858 6.16666 6.33268 6.16666H9.66602C9.85012 6.16666 9.99935 6.01743 9.99935 5.83333V2.49999C9.99935 2.3159 9.85012 2.16666 9.66602 2.16666ZM6.33268 1.83333H9.66602C10.0342 1.83333 10.3327 2.1318 10.3327 2.49999V5.83333C10.3327 6.20153 10.0342 6.49999 9.66602 6.49999H6.33268C5.96448 6.49999 5.66602 6.20153 5.66602 5.83333V2.49999C5.66602 2.1318 5.96448 1.83333 6.33268 1.83333Z" fill="white"/>
<path d="M5.33398 7.16667H6.66732V8.16667H5.33398V7.16667Z" fill="white"/>
<path d="M5.33398 8.83333H6.66732V9.83333H5.33398V8.83333Z" fill="white"/>
<path d="M5.33398 10.5H6.66732V11.5H5.33398V10.5Z" fill="white"/>
<path d="M7.33398 7.16667H8.66732V8.16667H7.33398V7.16667Z" fill="white"/>
<path d="M7.33398 8.83333H8.66732V9.83333H7.33398V8.83333Z" fill="white"/>
<path d="M7.33398 10.5H8.66732V11.5H7.33398V10.5Z" fill="white"/>
<path d="M9.33398 7.16667H10.6673V8.16667H9.33398V7.16667Z" fill="white"/>
<path d="M9.33398 8.83333H10.6673V9.83333H9.33398V8.83333Z" fill="white"/>
<path d="M9.33398 10.5H10.6673V11.5H9.33398V10.5Z" fill="white"/>
<path fill-rule="evenodd" clip-rule="evenodd" d="M4 14.5V2.83333H4.66667V14.5H4Z" fill="white"/>
<path fill-rule="evenodd" clip-rule="evenodd" d="M11.334 14.5V2.83333H12.0007V14.5H11.334Z" fill="white"/>
<path fill-rule="evenodd" clip-rule="evenodd" d="M7.66602 12.5H5.66602V14.5H7.66602V12.5ZM8.33268 12.5V14.5H10.3327V12.5H8.33268Z" fill="white"/>
<path fill-rule="evenodd" clip-rule="evenodd" d="M9.66602 14.5V13.1667H10.3327V14.5H9.66602Z" fill="white"/>
<path fill-rule="evenodd" clip-rule="evenodd" d="M5.66602 14.5V13.1667H6.33268V14.5H5.66602Z" fill="white"/>
</svg>
