<svg width="24" height="25" viewBox="0 0 24 25" fill="none" xmlns="http://www.w3.org/2000/svg">
<path fill-rule="evenodd" clip-rule="evenodd" d="M21.21 8.399V16.55C21.21 19.57 19.32 21.7 16.3 21.7H7.65C4.63 21.7 2.75 19.57 2.75 16.55V8.399C2.75 5.379 4.64 3.25 7.65 3.25H16.3C19.32 3.25 21.21 5.379 21.21 8.399Z" stroke="#333333" stroke-width="1.5" stroke-linecap="round" stroke-linejoin="round"/>
<path d="M5.28125 16.9303L6.80925 15.3173C7.34025 14.7543 8.22525 14.7273 8.78925 15.2573C8.80625 15.2743 9.72625 16.2093 9.72625 16.2093C10.2813 16.7743 11.1883 16.7833 11.7533 16.2293C11.7903 16.1933 14.0872 13.4073 14.0872 13.4073C14.6792 12.6883 15.7422 12.5853 16.4622 13.1783C16.5102 13.2183 18.6803 15.4453 18.6803 15.4453" stroke="#333333" stroke-width="1.5" stroke-linecap="round" stroke-linejoin="round"/>
<path fill-rule="evenodd" clip-rule="evenodd" d="M10.3127 9.63291C10.3127 10.6019 9.52769 11.3869 8.55869 11.3869C7.58969 11.3869 6.80469 10.6019 6.80469 9.63291C6.80469 8.66391 7.58969 7.87891 8.55869 7.87891C9.52769 7.87991 10.3127 8.66391 10.3127 9.63291Z" stroke="#333333" stroke-width="1.5" stroke-linecap="round" stroke-linejoin="round"/>
</svg>
