<svg width="24" height="24" viewBox="0 0 24 24" fill="none" xmlns="http://www.w3.org/2000/svg">
<path fill-rule="evenodd" clip-rule="evenodd" d="M10 2C9.17155 2 8.5 2.67158 8.5 3.5H6.5C5.67155 3.5 5 4.17158 5 5V20.5C5 21.3284 5.67155 22 6.5 22H17.5C18.3285 22 19 21.3284 19 20.5V5C19 4.17158 18.3285 3.5 17.5 3.5H15.5C15.5 2.67158 14.8285 2 14 2H10ZM9.5 3.5C9.5 3.22386 9.72385 3 10 3H14C14.2761 3 14.5 3.22386 14.5 3.5V4.5C14.5 4.77614 14.2761 5 14 5H10C9.72385 5 9.5 4.77614 9.5 4.5V3.5ZM9.5 7.5V9H8V10H9.5V11.5H10.5V10H12V9H10.5V7.5H9.5ZM8.5 13C8.22385 13 8 13.2239 8 13.5C8 13.7761 8.22385 14 8.5 14H15.5C15.7761 14 16 13.7761 16 13.5C16 13.2239 15.7761 13 15.5 13H8.5ZM8 16C8 15.7239 8.22385 15.5 8.5 15.5H15.5C15.7761 15.5 16 15.7239 16 16C16 16.2761 15.7761 16.5 15.5 16.5H8.5C8.22385 16.5 8 16.2761 8 16ZM8.5 18C8.22385 18 8 18.2239 8 18.5C8 18.7761 8.22385 19 8.5 19H15.5C15.7761 19 16 18.7761 16 18.5C16 18.2239 15.7761 18 15.5 18H8.5Z" fill="white"/>
</svg>
