<svg width="12" height="13" viewBox="0 0 12 13" fill="none" xmlns="http://www.w3.org/2000/svg">
<path d="M9.00045 2.75756C8.2048 1.96191 7.12567 1.51492 6.00045 1.51492C4.87523 1.51492 3.7961 1.96191 3.00045 2.75756C2.2048 3.55321 1.75781 4.63235 1.75781 5.75756C1.75781 6.88278 2.2048 7.96191 3.00045 8.75756L5.63545 11.3976C5.68193 11.4444 5.73724 11.4816 5.79816 11.507C5.85909 11.5324 5.92445 11.5455 5.99045 11.5455C6.05646 11.5455 6.12181 11.5324 6.18274 11.507C6.24367 11.4816 6.29897 11.4444 6.34545 11.3976L9.00045 8.73256C9.79278 7.94022 10.2379 6.86559 10.2379 5.74506C10.2379 4.62454 9.79278 3.5499 9.00045 2.75756ZM8.28545 8.01756L6.00045 10.3126L3.71545 8.01756C3.26403 7.56572 2.95669 6.99019 2.8323 6.36371C2.70791 5.73723 2.77205 5.08794 3.01661 4.4979C3.26116 3.90787 3.67516 3.40359 4.20627 3.0488C4.73738 2.69402 5.36175 2.50465 6.00045 2.50465C6.63916 2.50465 7.26353 2.69402 7.79464 3.0488C8.32574 3.40359 8.73974 3.90787 8.9843 4.4979C9.22886 5.08794 9.293 5.73723 9.16861 6.36371C9.04422 6.99019 8.73688 7.56572 8.28545 8.01756ZM4.50045 4.22256C4.09681 4.62745 3.87015 5.17585 3.87015 5.74756C3.87015 6.31928 4.09681 6.86768 4.50045 7.27256C4.80033 7.57296 5.18225 7.7781 5.59828 7.86227C6.01431 7.94643 6.44593 7.90586 6.83899 7.74564C7.23205 7.58543 7.56904 7.3127 7.80769 6.96169C8.04634 6.61067 8.17602 6.197 8.18045 5.77256C8.18271 5.48917 8.12811 5.20819 8.01991 4.94626C7.9117 4.68432 7.75207 4.44674 7.55045 4.24756C7.35229 4.04485 7.11599 3.88333 6.85516 3.7723C6.59434 3.66126 6.31412 3.6029 6.03065 3.60058C5.74718 3.59825 5.46605 3.65201 5.20344 3.75876C4.94082 3.8655 4.70191 4.02313 4.50045 4.22256ZM6.84545 6.56256C6.65597 6.75493 6.40556 6.87552 6.13702 6.90369C5.86847 6.93186 5.59848 6.86588 5.37321 6.71703C5.14793 6.56817 4.98135 6.34568 4.90196 6.08761C4.82256 5.82953 4.83528 5.55188 4.93793 5.30214C5.04059 5.0524 5.2268 4.84607 5.46475 4.71843C5.70269 4.59079 5.97758 4.54977 6.24242 4.60237C6.50726 4.65498 6.74561 4.79794 6.91671 5.00683C7.08781 5.21572 7.18104 5.47755 7.18045 5.74756C7.17318 6.0562 7.0437 6.34933 6.82045 6.56256H6.84545Z" fill="url(#paint0_linear_603_43756)"/>
<defs>
<linearGradient id="paint0_linear_603_43756" x1="6.54541" y1="-7.05283" x2="0.64027" y2="-4.11414" gradientUnits="userSpaceOnUse">
<stop stop-color="#5CDAE8"/>
<stop offset="1" stop-color="#547BFE"/>
</linearGradient>
</defs>
</svg>
