<svg width="24" height="25" viewBox="0 0 24 25" fill="none" xmlns="http://www.w3.org/2000/svg">
<path fill-rule="evenodd" clip-rule="evenodd" d="M17.5227 7.87892V9.41226C19.2451 9.94987 20.5 11.509 20.5 13.3713L20.5 18.3082C20.5 20.6137 18.5886 22.4829 16.2322 22.4829H7.7688C5.41136 22.4829 3.5 20.6137 3.5 18.3082L3.5 13.3713C3.5 11.509 4.75595 9.94987 6.47729 9.41226L6.47729 7.87892C6.48745 4.8977 8.95667 2.48291 11.9848 2.48291C15.0535 2.48291 17.5227 4.8977 17.5227 7.87892ZM12.0051 4.22195C14.0678 4.22195 15.7445 5.86162 15.7445 7.87892V9.19661L8.25553 9.19661V7.85904C8.26569 5.85169 9.94232 4.22195 12.0051 4.22195ZM12.8891 16.9378C12.8891 17.4248 12.4928 17.8123 11.9949 17.8123C11.5072 17.8123 11.1109 17.4248 11.1109 16.9378V14.7317C11.1109 14.2547 11.5072 13.8672 11.9949 13.8672C12.4928 13.8672 12.8891 14.2547 12.8891 14.7317V16.9378Z" fill="url(#paint0_linear_603_61039)"/>
<defs>
<linearGradient id="paint0_linear_603_61039" x1="-2.06637" y1="4.6953" x2="21.6929" y2="14.1871" gradientUnits="userSpaceOnUse">
<stop stop-color="#5DE1E7"/>
<stop offset="1" stop-color="#2F75FE"/>
</linearGradient>
</defs>
</svg>
