<svg width="78" height="61" viewBox="0 0 78 61" fill="none" xmlns="http://www.w3.org/2000/svg">
<mask id="mask0_603_44028" style="mask-type:luminance" maskUnits="userSpaceOnUse" x="32" y="13" width="9" height="12">
<path d="M32.1016 13.1293H40.3426V24.3284H32.1016V13.1293Z" fill="white"/>
</mask>
<g mask="url(#mask0_603_44028)">
<path d="M32.373 24.1662V13.1423H40.0645C40.0645 13.1423 40.167 18.3025 38.2009 20.3807C36.2337 22.4588 32.373 24.1662 32.373 24.1662Z" fill="#545454"/>
</g>
<mask id="mask1_603_44028" style="mask-type:luminance" maskUnits="userSpaceOnUse" x="19" y="13" width="22" height="21">
<path d="M19.5703 13.3402H40.3423V33.7903H19.5703V13.3402Z" fill="white"/>
</mask>
<g mask="url(#mask1_603_44028)">
<mask id="mask2_603_44028" style="mask-type:luminance" maskUnits="userSpaceOnUse" x="19" y="13" width="22" height="21">
<path d="M40.0621 13.5635C40.0716 14.9274 39.9131 19.4295 37.7002 23.8267C37.0015 25.2097 36.1025 26.5832 34.9377 27.8447C31.9236 31.1151 27.1413 33.632 19.5703 33.632V25.9501C25.1538 25.9501 29.2195 25.0941 32.1799 23.8267C33.2339 23.3736 34.1496 22.8704 34.94 22.3339C39.5983 19.1756 40.0442 14.8964 40.0621 13.5635Z" fill="white"/>
</mask>
<g mask="url(#mask2_603_44028)">
<path d="M19.5703 13.5635V33.632H40.0716V13.5635H19.5703Z" fill="url(#paint0_linear_603_44028)"/>
</g>
</g>
<mask id="mask3_603_44028" style="mask-type:luminance" maskUnits="userSpaceOnUse" x="32" y="32" width="9" height="12">
<path d="M32.1016 32.5692H40.3426V43.8041H32.1016V32.5692Z" fill="white"/>
</mask>
<g mask="url(#mask3_603_44028)">
<path d="M40.0654 32.8444V43.8682H32.374C32.374 43.8682 32.2703 38.708 34.2375 36.6299C36.2036 34.5529 40.0654 32.8444 40.0654 32.8444Z" fill="#545454"/>
</g>
<mask id="mask4_603_44028" style="mask-type:luminance" maskUnits="userSpaceOnUse" x="32" y="23" width="21" height="21">
<path d="M32.1016 23.1067H52.7638V43.5567H32.1016V23.1067Z" fill="white"/>
</mask>
<g mask="url(#mask4_603_44028)">
<mask id="mask5_603_44028" style="mask-type:luminance" maskUnits="userSpaceOnUse" x="32" y="23" width="21" height="21">
<path d="M32.3754 43.4534C32.3658 42.0894 32.5244 37.5874 34.7373 33.1902C35.436 31.8072 36.3349 30.4337 37.4998 29.1722C40.5139 25.9018 45.2961 23.3849 52.8683 23.3849V31.0668C47.2837 31.0668 43.2192 31.9228 40.2587 33.1902C39.2048 33.6433 38.2891 34.1464 37.4974 34.683C32.8404 37.8413 32.3944 42.1216 32.3754 43.4534Z" fill="white"/>
</mask>
<g mask="url(#mask5_603_44028)">
<path d="M52.7628 43.4533V23.3848H32.3652V43.4533H52.7628Z" fill="url(#paint1_linear_603_44028)"/>
</g>
</g>
<path d="M2.30349 47.6378C3.06655 47.6378 3.66746 47.8214 4.10622 48.1863C4.54498 48.5523 4.76437 49.0543 4.76437 49.6933C4.76437 50.336 4.54498 50.8403 4.10622 51.2051C3.66746 51.5712 3.06655 51.7536 2.30349 51.7536H0.844137V53.542H0V47.6378H2.30349ZM2.27488 51.0191C2.80902 51.0191 3.21559 50.9071 3.49578 50.6805C3.77835 50.4516 3.92023 50.1225 3.92023 49.6933C3.92023 49.2677 3.77835 48.9422 3.49578 48.7156C3.21559 48.4867 2.80902 48.3723 2.27488 48.3723H0.844137V51.0191H2.27488Z" fill="#004AAD"/>
<path d="M11.7334 47.6378V53.542H10.8893V50.9094H7.49843V53.542H6.6543V47.6378H7.49843V50.175H10.8893V47.6378H11.7334Z" fill="#004AAD"/>
<path d="M16.7355 53.6095C16.137 53.6095 15.6005 53.4795 15.1236 53.2184C14.6466 52.9585 14.2711 52.5973 13.998 52.1358C13.7238 51.6756 13.5879 51.1606 13.5879 50.5906C13.5879 50.0219 13.7238 49.5069 13.998 49.0454C14.2711 48.5852 14.6466 48.224 15.1236 47.9628C15.6005 47.7029 16.137 47.5718 16.7355 47.5718C17.3233 47.5718 17.8563 47.7029 18.3332 47.9628C18.8125 48.224 19.188 48.5828 19.4587 49.0407C19.7282 49.4985 19.8641 50.016 19.8641 50.5906C19.8641 51.1629 19.7282 51.6804 19.4587 52.1406C19.188 52.5984 18.8125 52.9585 18.3332 53.2184C17.8563 53.4795 17.3233 53.6095 16.7355 53.6095ZM16.7355 52.8607C17.1671 52.8607 17.557 52.763 17.904 52.5651C18.2497 52.3683 18.5216 52.0965 18.7195 51.7495C18.9198 51.4038 19.0199 51.0175 19.0199 50.5906C19.0199 50.1614 18.9198 49.7751 18.7195 49.4317C18.5216 49.086 18.2497 48.8141 17.904 48.6162C17.557 48.4195 17.1671 48.3205 16.7355 48.3205C16.3027 48.3205 15.9105 48.4195 15.5575 48.6162C15.2046 48.8141 14.928 49.086 14.7277 49.4317C14.5298 49.7751 14.432 50.1614 14.432 50.5906C14.432 51.0175 14.5298 51.4038 14.7277 51.7495C14.928 52.0965 15.2046 52.3683 15.5575 52.5651C15.9105 52.763 16.3027 52.8607 16.7355 52.8607Z" fill="#004AAD"/>
<path d="M26.7979 47.6378V53.542H26.1064L22.5629 49.1401V53.542H21.7188V47.6378H22.4103L25.9537 52.0397V47.6378H26.7979Z" fill="#004AAD"/>
<path d="M33.224 50.5573H34.0347V52.8607C33.7414 53.1028 33.4004 53.2888 33.0094 53.4187C32.6207 53.5451 32.2177 53.6095 31.798 53.6095C31.1995 53.6095 30.663 53.4795 30.1861 53.2184C29.7091 52.9585 29.3336 52.5984 29.0605 52.1406C28.7863 51.6804 28.6504 51.1629 28.6504 50.5906C28.6504 50.016 28.7863 49.4973 29.0605 49.0359C29.3336 48.5757 29.7103 48.2156 30.1908 47.9581C30.6701 47.7005 31.2114 47.5718 31.8123 47.5718C32.2857 47.5718 32.7149 47.6505 33.1 47.8055C33.4839 47.9581 33.8118 48.1846 34.0824 48.4827L33.5578 49.0025C33.0869 48.5483 32.5158 48.3205 31.8457 48.3205C31.3974 48.3205 30.9932 48.4183 30.6344 48.6114C30.2779 48.8058 29.9977 49.0764 29.795 49.4222C29.5947 49.7692 29.4945 50.159 29.4945 50.5906C29.4945 51.0175 29.5947 51.4038 29.795 51.7495C29.9977 52.0965 30.2779 52.3683 30.6344 52.5651C30.9932 52.763 31.395 52.8607 31.8409 52.8607C32.3679 52.8607 32.8293 52.7344 33.224 52.4792V50.5573Z" fill="#004AAD"/>
<path d="M38.1309 50.919L37.0531 52.0159V53.542H36.209V47.6378H37.0531V50.9333L40.258 47.6378H41.2213L38.6985 50.2942L41.3787 53.542H40.3915L38.1309 50.919Z" fill="#004AAD"/>
<path d="M47.917 47.6378V53.542H47.0729V50.9094H43.682V53.542H42.8379V47.6378H43.682V50.175H47.0729V47.6378H47.917Z" fill="#004AAD"/>
<path d="M54.0149 52.0636H50.8768L50.2235 53.542H49.3555L52.031 47.6378H52.8656L55.5506 53.542H54.6635L54.0149 52.0636ZM53.7192 51.3911L52.4459 48.4963L51.1725 51.3911H53.7192Z" fill="#004AAD"/>
<path d="M62.4652 53.542L62.4557 49.2402L60.3191 52.8266H59.9328L57.801 49.2641V53.542H56.9902V47.6378H57.6818L60.1426 51.787L62.5749 47.6378H63.2664L63.276 53.542H62.4652Z" fill="#004AAD"/>
<path d="M67.3328 53.6095C66.8869 53.6095 66.4577 53.5415 66.0452 53.4044C65.6314 53.2649 65.3071 53.0849 65.0723 52.8655L65.3823 52.2074C65.6076 52.4113 65.8949 52.577 66.2455 52.7034C66.5984 52.8309 66.9608 52.8941 67.3328 52.8941C67.8217 52.8941 68.1877 52.8119 68.4297 52.6461C68.6706 52.478 68.7922 52.2575 68.7922 51.9832C68.7922 51.7805 68.7254 51.6148 68.5919 51.4872C68.4607 51.3609 68.2974 51.2631 68.1007 51.1963C67.9063 51.1296 67.6333 51.0532 67.2804 50.9674C66.8345 50.8625 66.4756 50.7576 66.2026 50.6526C65.9319 50.5453 65.6994 50.3796 65.5063 50.1566C65.3119 49.9349 65.2153 49.6344 65.2153 49.2553C65.2153 48.9405 65.2976 48.6579 65.4633 48.4064C65.6279 48.1524 65.8794 47.9509 66.2169 47.8007C66.5531 47.6481 66.9728 47.5718 67.4759 47.5718C67.8217 47.5718 68.1639 47.6171 68.5013 47.7053C68.8411 47.7947 69.132 47.9235 69.374 48.0916L69.0926 48.7688C68.847 48.6103 68.5835 48.491 68.301 48.4111C68.0208 48.3289 67.7454 48.2871 67.4759 48.2871C66.9954 48.2871 66.6365 48.3754 66.3981 48.5494C66.1596 48.7247 66.0404 48.9489 66.0404 49.2219C66.0404 49.4258 66.1072 49.5915 66.2407 49.7179C66.3766 49.8455 66.5435 49.9444 66.7415 50.0136C66.9418 50.0839 67.2136 50.159 67.557 50.2377C68.0017 50.3426 68.3594 50.4499 68.63 50.5573C68.8995 50.6622 69.132 50.8243 69.3263 51.0437C69.5195 51.2631 69.6173 51.5588 69.6173 51.9308C69.6173 52.2396 69.5326 52.5221 69.3645 52.7797C69.1952 53.0348 68.94 53.2363 68.5967 53.3854C68.2533 53.5356 67.8312 53.6095 67.3328 53.6095Z" fill="#004AAD"/>
<path d="M74.0793 53.6095C73.4807 53.6095 72.9442 53.4795 72.4673 53.2184C71.9904 52.9585 71.6148 52.5973 71.3418 52.1358C71.0676 51.6756 70.9316 51.1606 70.9316 50.5906C70.9316 50.0219 71.0676 49.5069 71.3418 49.0454C71.6148 48.5852 71.9904 48.224 72.4673 47.9628C72.9442 47.7029 73.4807 47.5718 74.0793 47.5718C74.6671 47.5718 75.2 47.7029 75.6769 47.9628C76.1562 48.224 76.5318 48.5828 76.8024 49.0407C77.0719 49.4985 77.2078 50.016 77.2078 50.5906C77.2078 51.1629 77.0719 51.6804 76.8024 52.1406C76.5318 52.5984 76.1562 52.9585 75.6769 53.2184C75.2 53.4795 74.6671 53.6095 74.0793 53.6095ZM74.0793 52.8607C74.5109 52.8607 74.9008 52.763 75.2477 52.5651C75.5935 52.3683 75.8653 52.0965 76.0632 51.7495C76.2635 51.4038 76.3637 51.0175 76.3637 50.5906C76.3637 50.1614 76.2635 49.7751 76.0632 49.4317C75.8653 49.086 75.5935 48.8141 75.2477 48.6162C74.9008 48.4195 74.5109 48.3205 74.0793 48.3205C73.6465 48.3205 73.2542 48.4195 72.9013 48.6162C72.5484 48.8141 72.2718 49.086 72.0715 49.4317C71.8735 49.7751 71.7758 50.1614 71.7758 50.5906C71.7758 51.0175 71.8735 51.4038 72.0715 51.7495C72.2718 52.0965 72.5484 52.3683 72.9013 52.5651C73.2542 52.763 73.6465 52.8607 74.0793 52.8607Z" fill="#004AAD"/>
<path d="M26.3782 60.4974V58.8615L25.5674 60.2255H25.4196L24.6041 58.8711V60.4974H24.2988V58.2511H24.5611L25.4959 59.8297L26.4211 58.2511H26.6834L26.6882 60.4974H26.3782Z" fill="#004AAD"/>
<path d="M29.2088 60.5166C28.9822 60.5166 28.7795 60.4677 28.5983 60.3688C28.4171 60.271 28.274 60.1339 28.1691 59.9586C28.0642 59.781 28.0117 59.5842 28.0117 59.3672C28.0117 59.1514 28.0642 58.9559 28.1691 58.7806C28.274 58.6066 28.4171 58.4695 28.5983 58.3705C28.7795 58.2727 28.9822 58.2227 29.2088 58.2227C29.4341 58.2227 29.638 58.2727 29.8192 58.3705C30.0004 58.4695 30.1411 58.6066 30.2437 58.7806C30.3486 58.9559 30.4011 59.1514 30.4011 59.3672C30.4011 59.5866 30.3486 59.7845 30.2437 59.9586C30.1411 60.1339 30.0004 60.271 29.8192 60.3688C29.638 60.4677 29.4341 60.5166 29.2088 60.5166ZM29.2088 60.2305C29.3733 60.2305 29.5211 60.1947 29.6523 60.1208C29.7858 60.0445 29.8908 59.9419 29.9671 59.8108C30.0434 59.6808 30.0815 59.533 30.0815 59.3672C30.0815 59.2051 30.0434 59.0596 29.9671 58.9285C29.8908 58.7985 29.7858 58.6948 29.6523 58.6185C29.5211 58.5422 29.3733 58.504 29.2088 58.504C29.0466 58.504 28.8964 58.5422 28.7605 58.6185C28.6269 58.6948 28.522 58.7985 28.4457 58.9285C28.3718 59.0596 28.336 59.2051 28.336 59.3672C28.336 59.533 28.3718 59.6808 28.4457 59.8108C28.522 59.9419 28.6269 60.0445 28.7605 60.1208C28.8964 60.1947 29.0466 60.2305 29.2088 60.2305Z" fill="#004AAD"/>
<path d="M33.2403 59.3337C33.3703 59.3695 33.4716 59.4338 33.5456 59.5292C33.6219 59.6246 33.66 59.7462 33.66 59.8917C33.66 60.086 33.5861 60.2351 33.4406 60.34C33.294 60.4449 33.0794 60.4974 32.7968 60.4974H31.7285V58.2511H32.7348C32.9923 58.2511 33.1903 58.3036 33.3309 58.4085C33.4704 58.511 33.5408 58.6517 33.5408 58.8329C33.5408 58.951 33.5134 59.0523 33.4597 59.1382C33.4049 59.224 33.3321 59.2896 33.2403 59.3337ZM32.048 58.5086V59.2288H32.7062C32.8707 59.2288 32.9983 59.199 33.0877 59.1382C33.1759 59.0785 33.2213 58.9891 33.2213 58.8711C33.2213 58.7542 33.1759 58.6648 33.0877 58.604C32.9983 58.5408 32.8707 58.5086 32.7062 58.5086H32.048ZM32.7873 60.2351C32.9685 60.2351 33.1044 60.2064 33.1974 60.1492C33.2892 60.0896 33.3357 59.9942 33.3357 59.8631C33.3357 59.6151 33.1521 59.4911 32.7873 59.4911H32.048V60.2351H32.7873Z" fill="#004AAD"/>
<path d="M34.9922 58.2511H35.3117V60.4974H34.9922V58.2511Z" fill="#004AAD"/>
<path d="M37.1398 58.5277V59.3146H38.2654V59.5912H37.1398V60.4974H36.8203V58.2511H38.4037V58.5277H37.1398Z" fill="#004AAD"/>
<path d="M40.7049 60.5166C40.4783 60.5166 40.2756 60.4677 40.0944 60.3688C39.9132 60.271 39.7701 60.1339 39.6652 59.9586C39.5603 59.781 39.5078 59.5842 39.5078 59.3672C39.5078 59.1514 39.5603 58.9559 39.6652 58.7806C39.7701 58.6066 39.9132 58.4695 40.0944 58.3705C40.2756 58.2727 40.4783 58.2227 40.7049 58.2227C40.9302 58.2227 41.1341 58.2727 41.3153 58.3705C41.4965 58.4695 41.6372 58.6066 41.7398 58.7806C41.8447 58.9559 41.8971 59.1514 41.8971 59.3672C41.8971 59.5866 41.8447 59.7845 41.7398 59.9586C41.6372 60.1339 41.4965 60.271 41.3153 60.3688C41.1341 60.4677 40.9302 60.5166 40.7049 60.5166ZM40.7049 60.2305C40.8694 60.2305 41.0172 60.1947 41.1484 60.1208C41.2819 60.0445 41.3869 59.9419 41.4632 59.8108C41.5395 59.6808 41.5776 59.533 41.5776 59.3672C41.5776 59.2051 41.5395 59.0596 41.4632 58.9285C41.3869 58.7985 41.2819 58.6948 41.1484 58.6185C41.0172 58.5422 40.8694 58.504 40.7049 58.504C40.5427 58.504 40.3925 58.5422 40.2566 58.6185C40.123 58.6948 40.0181 58.7985 39.9418 58.9285C39.8679 59.0596 39.8321 59.2051 39.8321 59.3672C39.8321 59.533 39.8679 59.6808 39.9418 59.8108C40.0181 59.9419 40.123 60.0445 40.2566 60.1208C40.3925 60.1947 40.5427 60.2305 40.7049 60.2305Z" fill="#004AAD"/>
<path d="M45.1542 58.2511V60.4974H44.8919L43.5422 58.8234V60.4974H43.2227V58.2511H43.485L44.8346 59.9251V58.2511H45.1542Z" fill="#004AAD"/>
<path d="M48.2951 60.216V60.4974H46.6641V58.2511H48.2474V58.5277H46.9836V59.2192H48.1091V59.4911H46.9836V60.216H48.2951Z" fill="#004AAD"/>
<path d="M7.87512 24.881L8.98156 25.1528L8.90048 25.4866L7.79404 25.2148L5.38086 25.9874L5.47147 25.6249L7.53651 24.9668L6.01039 23.4264L6.09146 23.0878L7.87512 24.881Z" fill="#004AAD"/>
<path d="M9.05835 16.8714L8.49082 17.8824L8.22852 17.7346L9.54003 15.4072L9.80233 15.5551L9.23003 16.5661L11.8435 18.0398L11.6718 18.345L9.05835 16.8714Z" fill="#004AAD"/>
<path d="M14.9681 13.1183L15.2018 13.3091L13.7377 15.1213L11.1719 13.0468L12.5931 11.287L12.8268 11.4777L11.6249 12.9657L12.5358 13.7001L13.6089 12.3743L13.8426 12.5651L12.7695 13.8909L13.7234 14.6587L14.9681 13.1183ZM11.9636 11.6399L11.458 11.8211L11.3865 12.3553L11.1862 12.6032L11.2291 11.845L11.4389 11.5922L12.1639 11.3919L11.9636 11.6399ZM11.5963 10.6479L11.8539 10.3284L11.8252 11.1868L11.6393 11.4157L11.5963 10.6479Z" fill="#004AAD"/>
<path d="M18.1607 6.67641L17.2116 7.34886L17.0352 7.10086L19.2147 5.55566L19.3911 5.80366L18.4421 6.47611L20.1732 8.92267L19.8919 9.12298L18.1607 6.67641Z" fill="#004AAD"/>
<path d="M25.1599 6.11826L24.0201 5.48396C23.9497 5.52569 23.8734 5.56742 23.7911 5.60796L22.9899 5.98949L23.443 6.93855L23.1282 7.08639L21.707 4.10568L22.823 3.57631C23.201 3.39508 23.5408 3.345 23.8436 3.42369C24.1453 3.5 24.373 3.69792 24.5256 4.01507C24.6365 4.24756 24.671 4.4729 24.6305 4.69228C24.5888 4.90928 24.4755 5.10601 24.2919 5.28366L25.508 5.95134L25.1599 6.11826ZM23.6576 5.34566C23.9533 5.20258 24.1464 5.0297 24.2394 4.82582C24.3312 4.62313 24.3217 4.40375 24.2108 4.16768C24.0964 3.92684 23.9294 3.77899 23.7101 3.72415C23.4931 3.66692 23.2379 3.70984 22.9422 3.85292L22.1506 4.22968L22.8659 5.72242L23.6576 5.34566Z" fill="#004AAD"/>
<path d="M29.2675 4.76989C28.9528 4.85335 28.6451 4.85812 28.3471 4.7842C28.0514 4.70789 27.7986 4.56482 27.5888 4.35497C27.3813 4.14513 27.2394 3.88641 27.1596 3.57761C27.0809 3.27 27.0821 2.97431 27.1643 2.69055C27.2442 2.40797 27.3944 2.16356 27.6174 1.9561C27.8392 1.74626 28.1086 1.6008 28.4234 1.51734C28.7405 1.43507 29.0446 1.43149 29.3343 1.5078C29.6228 1.58172 29.8732 1.72241 30.083 1.93225C30.2929 2.1421 30.4371 2.40201 30.517 2.70962C30.5957 3.01842 30.5945 3.3153 30.5123 3.60145C30.4324 3.8876 30.2845 4.1344 30.0687 4.34067C29.8517 4.54455 29.5847 4.68762 29.2675 4.76989ZM29.1864 4.46943C29.4368 4.40624 29.6502 4.29059 29.8255 4.12129C29.9996 3.9496 30.1188 3.74929 30.1832 3.52038C30.25 3.28907 30.25 3.04823 30.1832 2.80024C30.1188 2.55224 30.0032 2.34121 29.835 2.16594C29.6657 1.99187 29.4642 1.87383 29.2294 1.81303C28.9969 1.75341 28.7548 1.7546 28.5045 1.81779C28.2493 1.88456 28.0347 2.0026 27.8606 2.17071C27.6854 2.33644 27.5649 2.53674 27.4982 2.77162C27.4338 3.00412 27.4338 3.24377 27.4982 3.49176C27.5649 3.73976 27.6818 3.9496 27.8511 4.12129C28.0192 4.29298 28.2195 4.41101 28.452 4.4742C28.6869 4.53859 28.9313 4.5362 29.1864 4.46943Z" fill="#004AAD"/>
<path d="M35.9959 0.517578L36.1724 3.81305L35.8862 3.82736L33.6257 1.26633L33.7687 3.94182L33.4206 3.96089L33.2441 0.665421L33.5303 0.651114L35.7956 3.20737L35.6526 0.536655L35.9959 0.517578Z" fill="#004AAD"/>
<path d="M41.5041 2.63528L41.8379 2.68297L41.6615 3.93248C41.4922 4.03979 41.299 4.1161 41.0796 4.1614C40.8602 4.20552 40.6337 4.21029 40.4024 4.17571C40.0781 4.1304 39.7943 4.01833 39.5535 3.8371C39.3115 3.65587 39.1314 3.42934 39.0146 3.15511C38.9001 2.8785 38.8644 2.58282 38.9097 2.26806C38.9538 1.95329 39.0694 1.68026 39.2578 1.44776C39.445 1.21646 39.6799 1.04716 39.9636 0.942236C40.2462 0.837315 40.5514 0.807508 40.8793 0.851622C41.1273 0.887391 41.3491 0.958928 41.547 1.06623C41.7473 1.17473 41.9059 1.31781 42.0239 1.49546L41.7807 1.68145C41.5613 1.39292 41.2513 1.21885 40.8507 1.16162C40.586 1.12346 40.338 1.14969 40.1067 1.23792C39.8778 1.32377 39.6882 1.46207 39.5392 1.65284C39.389 1.84122 39.296 2.06179 39.2578 2.31575C39.222 2.57328 39.2507 2.81412 39.3437 3.03589C39.4355 3.25527 39.5785 3.44126 39.7729 3.59387C39.966 3.7441 40.1949 3.8371 40.4596 3.87525C40.7959 3.92295 41.0939 3.87645 41.3515 3.73695L41.5041 2.63528Z" fill="#004AAD"/>
<path d="M48.9754 3.54246L47.9215 3.06555L48.0455 2.78894L50.4777 3.88584L50.3537 4.16245L49.295 3.68554L48.0598 6.41825L47.7402 6.27518L48.9754 3.54246Z" fill="#004AAD"/>
<path d="M53.3422 8.46474L51.8161 7.4346L50.9958 7.9449L50.6953 7.73983L53.7905 5.85125L54.0814 6.04678L53.4805 9.62364L53.1753 9.41856L53.3422 8.46474ZM53.3946 8.15951L53.7285 6.24709L52.0831 7.27245L53.3946 8.15951ZM54.4677 5.98479L54.2435 5.49833L53.7094 5.46972L53.4423 5.29326L54.2006 5.26942L54.4725 5.45541L54.73 6.16124L54.4677 5.98479ZM54.6203 4.98804L54.9589 5.21696L55.1449 5.96571L54.8969 5.79879L54.6203 4.98804Z" fill="#004AAD"/>
<path d="M59.9794 11.2207L57.6235 13.529L57.3898 13.2905L59.2784 11.4401L56.7841 12.0696L56.6649 11.9504L57.3373 9.48L55.4583 11.3209L55.2246 11.0824L57.5806 8.77417L57.7809 8.97924L57.0416 11.7167L59.7791 11.0157L59.9794 11.2207Z" fill="#004AAD"/>
<path d="M63.914 17.5555L63.3846 16.5301L63.6517 16.3966L64.8774 18.7669L64.6103 18.9004L64.0761 17.8655L61.4102 19.2438L61.248 18.9338L63.914 17.5555Z" fill="#004AAD"/>
<path d="M64.2758 24.1286L63.7226 22.3736L62.764 22.2591L62.6543 21.9158L66.255 22.3545L66.3599 22.6884L63.6654 25.1206L63.5557 24.7725L64.2758 24.1286ZM64.5095 23.9188L65.9593 22.6311L64.0326 22.407L64.5095 23.9188Z" fill="#004AAD"/>
<path d="M65.3831 28.3631L64.2528 28.511L64.2051 28.1724L65.3354 28.0245L67.305 26.4316L67.3527 26.7989L65.6644 28.1581L67.6484 29.0451L67.6961 29.3933L65.3831 28.3631Z" fill="#004AAD"/>
<defs>
<linearGradient id="paint0_linear_603_44028" x1="19.5703" y1="23.5977" x2="40.072" y2="23.5977" gradientUnits="userSpaceOnUse">
<stop stop-color="#5CE1E6"/>
<stop offset="0.03125" stop-color="#5CE1E6"/>
<stop offset="0.0390625" stop-color="#5CE1E6"/>
<stop offset="0.046875" stop-color="#5CE0E6"/>
<stop offset="0.0546875" stop-color="#5CDFE6"/>
<stop offset="0.0625" stop-color="#5CDEE7"/>
<stop offset="0.0703125" stop-color="#5CDEE7"/>
<stop offset="0.078125" stop-color="#5CDDE7"/>
<stop offset="0.0859375" stop-color="#5CDCE7"/>
<stop offset="0.09375" stop-color="#5CDBE7"/>
<stop offset="0.101563" stop-color="#5BDAE8"/>
<stop offset="0.109375" stop-color="#5BD9E8"/>
<stop offset="0.117188" stop-color="#5BD8E8"/>
<stop offset="0.125" stop-color="#5BD7E8"/>
<stop offset="0.132813" stop-color="#5BD6E8"/>
<stop offset="0.140625" stop-color="#5BD5E9"/>
<stop offset="0.148438" stop-color="#5BD4E9"/>
<stop offset="0.15625" stop-color="#5BD3E9"/>
<stop offset="0.164062" stop-color="#5BD3E9"/>
<stop offset="0.171875" stop-color="#5BD2E9"/>
<stop offset="0.179688" stop-color="#5BD1EA"/>
<stop offset="0.1875" stop-color="#5BD0EA"/>
<stop offset="0.195313" stop-color="#5ACFEA"/>
<stop offset="0.203125" stop-color="#5ACEEA"/>
<stop offset="0.210938" stop-color="#5ACDEA"/>
<stop offset="0.21875" stop-color="#5ACCEB"/>
<stop offset="0.226563" stop-color="#5ACBEB"/>
<stop offset="0.234375" stop-color="#5ACAEB"/>
<stop offset="0.242188" stop-color="#5AC9EB"/>
<stop offset="0.25" stop-color="#5AC8EB"/>
<stop offset="0.257812" stop-color="#5AC8EC"/>
<stop offset="0.265625" stop-color="#5AC7EC"/>
<stop offset="0.273438" stop-color="#5AC6EC"/>
<stop offset="0.28125" stop-color="#5AC5EC"/>
<stop offset="0.289062" stop-color="#59C4EC"/>
<stop offset="0.296875" stop-color="#59C3ED"/>
<stop offset="0.304688" stop-color="#59C2ED"/>
<stop offset="0.3125" stop-color="#59C1ED"/>
<stop offset="0.320312" stop-color="#59C0ED"/>
<stop offset="0.328125" stop-color="#59BFEE"/>
<stop offset="0.335938" stop-color="#59BEEE"/>
<stop offset="0.34375" stop-color="#59BDEE"/>
<stop offset="0.351563" stop-color="#59BDEE"/>
<stop offset="0.359375" stop-color="#59BCEE"/>
<stop offset="0.367188" stop-color="#59BBEF"/>
<stop offset="0.375" stop-color="#59BAEF"/>
<stop offset="0.382812" stop-color="#58B9EF"/>
<stop offset="0.390625" stop-color="#58B8EF"/>
<stop offset="0.398438" stop-color="#58B7EF"/>
<stop offset="0.40625" stop-color="#58B6F0"/>
<stop offset="0.414062" stop-color="#58B5F0"/>
<stop offset="0.421875" stop-color="#58B4F0"/>
<stop offset="0.429688" stop-color="#58B3F0"/>
<stop offset="0.4375" stop-color="#58B2F0"/>
<stop offset="0.445312" stop-color="#58B2F1"/>
<stop offset="0.453125" stop-color="#58B1F1"/>
<stop offset="0.460938" stop-color="#58B0F1"/>
<stop offset="0.46875" stop-color="#58AFF1"/>
<stop offset="0.476562" stop-color="#58AEF1"/>
<stop offset="0.484375" stop-color="#57ADF2"/>
<stop offset="0.492188" stop-color="#57ACF2"/>
<stop offset="0.5" stop-color="#57ABF2"/>
<stop offset="0.507812" stop-color="#57AAF2"/>
<stop offset="0.515625" stop-color="#57A9F2"/>
<stop offset="0.523437" stop-color="#57A8F3"/>
<stop offset="0.53125" stop-color="#57A7F3"/>
<stop offset="0.539063" stop-color="#57A7F3"/>
<stop offset="0.546875" stop-color="#57A6F3"/>
<stop offset="0.554688" stop-color="#57A5F3"/>
<stop offset="0.5625" stop-color="#57A4F4"/>
<stop offset="0.570312" stop-color="#57A3F4"/>
<stop offset="0.578125" stop-color="#56A2F4"/>
<stop offset="0.585937" stop-color="#56A1F4"/>
<stop offset="0.59375" stop-color="#56A0F4"/>
<stop offset="0.601562" stop-color="#569FF5"/>
<stop offset="0.609375" stop-color="#569EF5"/>
<stop offset="0.617188" stop-color="#569DF5"/>
<stop offset="0.625" stop-color="#569CF5"/>
<stop offset="0.632812" stop-color="#569CF5"/>
<stop offset="0.640625" stop-color="#569BF6"/>
<stop offset="0.648437" stop-color="#569AF6"/>
<stop offset="0.65625" stop-color="#5699F6"/>
<stop offset="0.664062" stop-color="#5698F6"/>
<stop offset="0.671875" stop-color="#5597F7"/>
<stop offset="0.679688" stop-color="#5596F7"/>
<stop offset="0.6875" stop-color="#5595F7"/>
<stop offset="0.695312" stop-color="#5594F7"/>
<stop offset="0.703125" stop-color="#5593F7"/>
<stop offset="0.710938" stop-color="#5592F8"/>
<stop offset="0.71875" stop-color="#5591F8"/>
<stop offset="0.726562" stop-color="#5591F8"/>
<stop offset="0.734375" stop-color="#5590F8"/>
<stop offset="0.742187" stop-color="#558FF8"/>
<stop offset="0.75" stop-color="#558EF9"/>
<stop offset="0.757813" stop-color="#558DF9"/>
<stop offset="0.765625" stop-color="#558CF9"/>
<stop offset="0.773438" stop-color="#548BF9"/>
<stop offset="0.78125" stop-color="#548AF9"/>
<stop offset="0.789062" stop-color="#5489FA"/>
<stop offset="0.796875" stop-color="#5488FA"/>
<stop offset="0.804688" stop-color="#5487FA"/>
<stop offset="0.8125" stop-color="#5486FA"/>
<stop offset="0.820312" stop-color="#5486FA"/>
<stop offset="0.828125" stop-color="#5485FB"/>
<stop offset="0.835938" stop-color="#5484FB"/>
<stop offset="0.84375" stop-color="#5483FB"/>
<stop offset="0.851563" stop-color="#5482FB"/>
<stop offset="0.859375" stop-color="#5481FB"/>
<stop offset="0.867188" stop-color="#5380FC"/>
<stop offset="0.875" stop-color="#537FFC"/>
<stop offset="0.882812" stop-color="#537EFC"/>
<stop offset="0.890625" stop-color="#537DFC"/>
<stop offset="0.898438" stop-color="#537CFC"/>
<stop offset="0.90625" stop-color="#537BFD"/>
<stop offset="0.914063" stop-color="#537BFD"/>
<stop offset="0.921875" stop-color="#537AFD"/>
<stop offset="0.929688" stop-color="#5379FD"/>
<stop offset="0.9375" stop-color="#5378FD"/>
<stop offset="0.945312" stop-color="#5377FE"/>
<stop offset="0.953125" stop-color="#5376FE"/>
<stop offset="0.960937" stop-color="#5275FE"/>
<stop offset="0.96875" stop-color="#5274FE"/>
<stop offset="0.976563" stop-color="#5273FE"/>
<stop offset="0.984375" stop-color="#5272FF"/>
<stop offset="1" stop-color="#5271FF"/>
</linearGradient>
<linearGradient id="paint1_linear_603_44028" x1="52.7628" y1="33.4192" x2="32.3649" y2="33.4192" gradientUnits="userSpaceOnUse">
<stop stop-color="#5CE1E6"/>
<stop offset="0.03125" stop-color="#5CE1E6"/>
<stop offset="0.0390625" stop-color="#5CE1E6"/>
<stop offset="0.046875" stop-color="#5CE0E6"/>
<stop offset="0.0546875" stop-color="#5CDFE6"/>
<stop offset="0.0625" stop-color="#5CDEE7"/>
<stop offset="0.0703125" stop-color="#5CDDE7"/>
<stop offset="0.078125" stop-color="#5CDCE7"/>
<stop offset="0.0859375" stop-color="#5CDBE7"/>
<stop offset="0.09375" stop-color="#5BDAE7"/>
<stop offset="0.101562" stop-color="#5BD9E8"/>
<stop offset="0.109375" stop-color="#5BD8E8"/>
<stop offset="0.117187" stop-color="#5BD8E8"/>
<stop offset="0.125" stop-color="#5BD7E8"/>
<stop offset="0.132812" stop-color="#5BD6E9"/>
<stop offset="0.140625" stop-color="#5BD5E9"/>
<stop offset="0.148437" stop-color="#5BD4E9"/>
<stop offset="0.15625" stop-color="#5BD3E9"/>
<stop offset="0.164062" stop-color="#5BD2E9"/>
<stop offset="0.171875" stop-color="#5BD1EA"/>
<stop offset="0.179687" stop-color="#5BD0EA"/>
<stop offset="0.1875" stop-color="#5ACFEA"/>
<stop offset="0.195312" stop-color="#5ACEEA"/>
<stop offset="0.203125" stop-color="#5ACEEA"/>
<stop offset="0.210937" stop-color="#5ACDEB"/>
<stop offset="0.21875" stop-color="#5ACCEB"/>
<stop offset="0.226562" stop-color="#5ACBEB"/>
<stop offset="0.234375" stop-color="#5ACAEB"/>
<stop offset="0.242187" stop-color="#5AC9EB"/>
<stop offset="0.25" stop-color="#5AC8EC"/>
<stop offset="0.257812" stop-color="#5AC7EC"/>
<stop offset="0.265625" stop-color="#5AC6EC"/>
<stop offset="0.273437" stop-color="#5AC5EC"/>
<stop offset="0.28125" stop-color="#5AC4EC"/>
<stop offset="0.289062" stop-color="#59C3ED"/>
<stop offset="0.296875" stop-color="#59C3ED"/>
<stop offset="0.304687" stop-color="#59C2ED"/>
<stop offset="0.3125" stop-color="#59C1ED"/>
<stop offset="0.320312" stop-color="#59C0ED"/>
<stop offset="0.328125" stop-color="#59BFEE"/>
<stop offset="0.335937" stop-color="#59BEEE"/>
<stop offset="0.34375" stop-color="#59BDEE"/>
<stop offset="0.351562" stop-color="#59BCEE"/>
<stop offset="0.359375" stop-color="#59BBEE"/>
<stop offset="0.367187" stop-color="#59BAEF"/>
<stop offset="0.375" stop-color="#59B9EF"/>
<stop offset="0.382812" stop-color="#58B9EF"/>
<stop offset="0.390625" stop-color="#58B8EF"/>
<stop offset="0.398437" stop-color="#58B7EF"/>
<stop offset="0.40625" stop-color="#58B6F0"/>
<stop offset="0.414062" stop-color="#58B5F0"/>
<stop offset="0.421875" stop-color="#58B4F0"/>
<stop offset="0.429687" stop-color="#58B3F0"/>
<stop offset="0.4375" stop-color="#58B2F0"/>
<stop offset="0.445312" stop-color="#58B1F1"/>
<stop offset="0.453125" stop-color="#58B0F1"/>
<stop offset="0.460937" stop-color="#58AFF1"/>
<stop offset="0.46875" stop-color="#58AEF1"/>
<stop offset="0.476562" stop-color="#57AEF1"/>
<stop offset="0.484375" stop-color="#57ADF2"/>
<stop offset="0.492187" stop-color="#57ACF2"/>
<stop offset="0.5" stop-color="#57ABF2"/>
<stop offset="0.507812" stop-color="#57AAF2"/>
<stop offset="0.515625" stop-color="#57A9F2"/>
<stop offset="0.523437" stop-color="#57A8F3"/>
<stop offset="0.53125" stop-color="#57A7F3"/>
<stop offset="0.539062" stop-color="#57A6F3"/>
<stop offset="0.546875" stop-color="#57A5F3"/>
<stop offset="0.554687" stop-color="#57A4F4"/>
<stop offset="0.5625" stop-color="#57A4F4"/>
<stop offset="0.570312" stop-color="#57A3F4"/>
<stop offset="0.578125" stop-color="#56A2F4"/>
<stop offset="0.585937" stop-color="#56A1F4"/>
<stop offset="0.59375" stop-color="#56A0F5"/>
<stop offset="0.601562" stop-color="#569FF5"/>
<stop offset="0.609375" stop-color="#569EF5"/>
<stop offset="0.617188" stop-color="#569DF5"/>
<stop offset="0.625" stop-color="#569CF5"/>
<stop offset="0.632812" stop-color="#569BF6"/>
<stop offset="0.640625" stop-color="#569AF6"/>
<stop offset="0.648437" stop-color="#5699F6"/>
<stop offset="0.65625" stop-color="#5699F6"/>
<stop offset="0.664062" stop-color="#5698F6"/>
<stop offset="0.671875" stop-color="#5597F7"/>
<stop offset="0.679687" stop-color="#5596F7"/>
<stop offset="0.6875" stop-color="#5595F7"/>
<stop offset="0.695312" stop-color="#5594F7"/>
<stop offset="0.703125" stop-color="#5593F7"/>
<stop offset="0.710937" stop-color="#5592F8"/>
<stop offset="0.71875" stop-color="#5591F8"/>
<stop offset="0.726562" stop-color="#5590F8"/>
<stop offset="0.734375" stop-color="#558FF8"/>
<stop offset="0.742188" stop-color="#558FF8"/>
<stop offset="0.75" stop-color="#558EF9"/>
<stop offset="0.757812" stop-color="#558DF9"/>
<stop offset="0.765625" stop-color="#548CF9"/>
<stop offset="0.773437" stop-color="#548BF9"/>
<stop offset="0.78125" stop-color="#548AF9"/>
<stop offset="0.789062" stop-color="#5489FA"/>
<stop offset="0.796875" stop-color="#5488FA"/>
<stop offset="0.804687" stop-color="#5487FA"/>
<stop offset="0.8125" stop-color="#5486FA"/>
<stop offset="0.820312" stop-color="#5485FA"/>
<stop offset="0.828125" stop-color="#5485FB"/>
<stop offset="0.835937" stop-color="#5484FB"/>
<stop offset="0.84375" stop-color="#5483FB"/>
<stop offset="0.851562" stop-color="#5482FB"/>
<stop offset="0.859375" stop-color="#5481FB"/>
<stop offset="0.867188" stop-color="#5380FC"/>
<stop offset="0.875" stop-color="#537FFC"/>
<stop offset="0.882812" stop-color="#537EFC"/>
<stop offset="0.890625" stop-color="#537DFC"/>
<stop offset="0.898437" stop-color="#537CFC"/>
<stop offset="0.90625" stop-color="#537BFD"/>
<stop offset="0.914062" stop-color="#537AFD"/>
<stop offset="0.921875" stop-color="#537AFD"/>
<stop offset="0.929687" stop-color="#5379FD"/>
<stop offset="0.9375" stop-color="#5378FD"/>
<stop offset="0.945312" stop-color="#5377FE"/>
<stop offset="0.953125" stop-color="#5376FE"/>
<stop offset="0.960937" stop-color="#5275FE"/>
<stop offset="0.96875" stop-color="#5274FE"/>
<stop offset="0.976562" stop-color="#5273FF"/>
<stop offset="0.984375" stop-color="#5272FF"/>
<stop offset="1" stop-color="#5271FF"/>
</linearGradient>
</defs>
</svg>
