<svg width="24" height="25" viewBox="0 0 24 25" fill="none" xmlns="http://www.w3.org/2000/svg">
<path fill-rule="evenodd" clip-rule="evenodd" d="M21 7.51758C21 9.72673 19.2092 11.5176 17 11.5176C14.7908 11.5176 13 9.72673 13 7.51758C13 5.30844 14.7908 3.51758 17 3.51758C19.2092 3.51758 21 5.30844 21 7.51758ZM19.1411 8.00993C19.0793 8.27908 18.8109 8.44708 18.5418 8.38518L15.234 7.62473C14.9649 7.56288 14.7969 7.29453 14.8588 7.02543C14.9207 6.75633 15.1889 6.58828 15.458 6.65018L18.7659 7.41063C19.035 7.47248 19.203 7.74083 19.1411 8.00993Z" fill="white"/>
<path d="M8.3891 5.14016C8.06535 4.37425 6.98265 4.297 6.54775 5.00877L3.14641 10.575C2.75405 11.2171 3.19274 12.0368 3.95795 12.0914L9.89115 12.5148C10.6564 12.5694 11.2131 11.8207 10.921 11.1297L8.3891 5.14016Z" fill="white"/>
<path fill-rule="evenodd" clip-rule="evenodd" d="M17.6928 18.6972C19.1944 17.997 19.8441 16.212 19.1438 14.7104C18.4436 13.2088 16.6587 12.5591 15.1571 13.2593L9.71921 15.795C8.21756 16.4953 7.56791 18.2802 8.26811 19.7818C8.96836 21.2834 10.7533 21.9331 12.2549 21.2329L17.6928 18.6972ZM14.9716 18.8627L17.2701 17.7909C18.2712 17.3241 18.7043 16.1341 18.2375 15.133C17.7707 14.1319 16.5808 13.6988 15.5797 14.1656L13.2812 15.2374L14.9716 18.8627Z" fill="white"/>
</svg>
