<svg width="24" height="25" viewBox="0 0 24 25" fill="none" xmlns="http://www.w3.org/2000/svg">
<path fill-rule="evenodd" clip-rule="evenodd" d="M11.4647 4.12012H12.5353C13.2123 4.1201 13.7707 4.12009 14.2125 4.1795C14.6764 4.24187 15.0862 4.37785 15.4142 4.70591C15.7423 5.03396 15.8783 5.44367 15.9406 5.90759C16 6.34946 16 6.90778 16 7.58484V7.62012L16.0366 7.62012C16.9483 7.62011 17.6832 7.62009 18.2612 7.6978C18.8612 7.77848 19.3665 7.95108 19.7678 8.35235C20.169 8.75363 20.3416 9.25888 20.4223 9.85895C20.5 10.4369 20.5 11.1718 20.5 12.0835V15.6567C20.5 16.5684 20.5 17.3033 20.4223 17.8813C20.3416 18.4814 20.169 18.9866 19.7678 19.3879C19.3665 19.7892 18.8612 19.9618 18.2612 20.0424C17.6832 20.1201 16.9483 20.1201 16.0366 20.1201H7.96343C7.0517 20.1201 6.31681 20.1201 5.73883 20.0424C5.13876 19.9618 4.63351 19.7892 4.23223 19.3879C3.83096 18.9866 3.65836 18.4814 3.57768 17.8813C3.49998 17.3033 3.49999 16.5684 3.5 15.6567V12.0835C3.49999 11.1718 3.49998 10.4369 3.57768 9.85895C3.65836 9.25888 3.83096 8.75363 4.23223 8.35235C4.63351 7.95108 5.13876 7.77848 5.73883 7.6978C6.31681 7.62009 7.05169 7.62011 7.96342 7.62012L8 7.62012L8 7.58483C7.99998 6.90777 7.99997 6.34947 8.05938 5.90759C8.12175 5.44367 8.25773 5.03396 8.58579 4.70591C8.91384 4.37785 9.32356 4.24187 9.78747 4.1795C10.2293 4.12009 10.7877 4.1201 11.4647 4.12012ZM9 7.62012H15C15 6.89888 14.9989 6.40825 14.9495 6.04084C14.9021 5.68781 14.8184 5.5243 14.7071 5.41301C14.5958 5.30173 14.4323 5.21804 14.0793 5.17058C13.7119 5.12118 13.2212 5.12012 12.5 5.12012H11.5C10.7788 5.12012 10.2881 5.12118 9.92072 5.17058C9.56769 5.21804 9.40418 5.30173 9.2929 5.41301C9.18161 5.5243 9.09792 5.68781 9.05046 6.04084C9.00106 6.40825 9 6.89888 9 7.62012ZM10.875 11.7451C10.875 11.3957 10.875 11.2209 10.9321 11.0831C11.0082 10.8993 11.1542 10.7533 11.338 10.6772C11.4758 10.6201 11.6505 10.6201 12 10.6201C12.3495 10.6201 12.5242 10.6201 12.662 10.6772C12.8458 10.7533 12.9918 10.8993 13.0679 11.0831C13.125 11.2209 13.125 11.3957 13.125 11.7451V12.4591C13.125 12.4761 13.125 12.4846 13.1303 12.4898C13.1355 12.4951 13.144 12.4951 13.161 12.4951H13.875C14.2245 12.4951 14.3992 12.4951 14.537 12.5522C14.7208 12.6283 14.8668 12.7743 14.9429 12.9581C15 13.0959 15 13.2707 15 13.6201C15 13.9696 15 14.1443 14.9429 14.2821C14.8668 14.4659 14.7208 14.6119 14.537 14.688C14.3992 14.7451 14.2245 14.7451 13.875 14.7451H13.161C13.144 14.7451 13.1355 14.7451 13.1303 14.7504C13.125 14.7557 13.125 14.7641 13.125 14.7811V15.4951C13.125 15.8446 13.125 16.0193 13.0679 16.1571C12.9918 16.3409 12.8458 16.4869 12.662 16.563C12.5242 16.6201 12.3495 16.6201 12 16.6201C11.6505 16.6201 11.4758 16.6201 11.338 16.563C11.1542 16.4869 11.0082 16.3409 10.9321 16.1571C10.875 16.0193 10.875 15.8446 10.875 15.4951V14.7811C10.875 14.7641 10.875 14.7557 10.8697 14.7504C10.8645 14.7451 10.856 14.7451 10.839 14.7451H10.125C9.77554 14.7451 9.60082 14.7451 9.46299 14.688C9.27922 14.6119 9.13321 14.4659 9.05709 14.2821C9 14.1443 9 13.9696 9 13.6201C9 13.2707 9 13.0959 9.05709 12.9581C9.13321 12.7743 9.27922 12.6283 9.46299 12.5522C9.60082 12.4951 9.77554 12.4951 10.125 12.4951H10.839C10.856 12.4951 10.8645 12.4951 10.8697 12.4898C10.875 12.4846 10.875 12.4761 10.875 12.4591V11.7451Z" fill="url(#paint0_linear_777_988)"/>
<defs>
<linearGradient id="paint0_linear_777_988" x1="-2.06637" y1="5.89003" x2="19.9857" y2="16.9023" gradientUnits="userSpaceOnUse">
<stop stop-color="#5DE1E7"/>
<stop offset="1" stop-color="#2F75FE"/>
</linearGradient>
</defs>
</svg>
