<svg width="24" height="25" viewBox="0 0 24 25" fill="none" xmlns="http://www.w3.org/2000/svg">
<path d="M4 14.5C5.10457 14.5 6 13.6046 6 12.5C6 11.3954 5.10457 10.5 4 10.5C2.89543 10.5 2 11.3954 2 12.5C2 13.6046 2.89543 14.5 4 14.5Z" fill="#333333"/>
<path d="M20 14.5C21.1046 14.5 22 13.6046 22 12.5C22 11.3954 21.1046 10.5 20 10.5C18.8954 10.5 18 11.3954 18 12.5C18 13.6046 18.8954 14.5 20 14.5Z" fill="#333333"/>
<path d="M12 14.5C13.1046 14.5 14 13.6046 14 12.5C14 11.3954 13.1046 10.5 12 10.5C10.8954 10.5 10 11.3954 10 12.5C10 13.6046 10.8954 14.5 12 14.5Z" fill="#333333"/>
</svg>
