<svg width="24" height="24" viewBox="0 0 24 24" fill="none" xmlns="http://www.w3.org/2000/svg">
<path fill-rule="evenodd" clip-rule="evenodd" d="M10.4795 4.6407C8.3109 3.42008 6.3896 3.99404 4.79267 5.93285C3.25139 7.80415 4.30222 11.1772 5.05765 13.602C5.23775 14.1801 5.4011 14.7044 5.50845 15.1415C6.0662 17.4119 6.5998 18.8266 7.81655 19.8505C8.41915 20.3575 9.1024 19.4862 9.82325 18.5669C10.4482 17.7699 11.1015 16.9369 11.7549 16.9349C12.3977 16.9329 13.0406 17.7647 13.6569 18.562C14.3683 19.4823 15.0443 20.3568 15.6437 19.8505C16.573 19.0656 16.9951 18.4897 17.5058 16.8725C19.2281 16.4265 20.5 14.8618 20.5 13C20.5 12.0856 20.1931 11.2428 19.6768 10.569C20.1798 8.85855 20.24 7.11725 18.7904 5.43635C16.7207 3.03658 13.852 4.27612 12.5166 5.0698L14.3254 6.6204C14.535 6.8001 14.5593 7.11575 14.3796 7.3254C14.1999 7.53505 13.8842 7.55935 13.6746 7.3796L10.4795 4.6407ZM19.5 13C19.5 14.6569 18.1568 16 16.5 16C14.8431 16 13.5 14.6569 13.5 13C13.5 11.3432 14.8431 10 16.5 10C18.1568 10 19.5 11.3432 19.5 13ZM16 11.5C16 11.2239 16.2238 11 16.5 11C16.7761 11 17 11.2239 17 11.5V12.5H18C18.2761 12.5 18.5 12.7239 18.5 13C18.5 13.2762 18.2761 13.5 18 13.5H17V14.5C17 14.7762 16.7761 15 16.5 15C16.2238 15 16 14.7762 16 14.5V13.5H15C14.7238 13.5 14.5 13.2762 14.5 13C14.5 12.7239 14.7238 12.5 15 12.5H16V11.5Z"/>
</svg>
