<svg width="24" height="25" viewBox="0 0 24 25" fill="none" xmlns="http://www.w3.org/2000/svg">
<path opacity="0.4" d="M14.4183 6.00752C13.9422 5.91958 13.505 6.22337 13.4144 6.68805C13.3238 7.15273 13.6285 7.60642 14.0916 7.69736C15.4859 7.96917 16.5624 9.04843 16.8353 10.4475V10.4485C16.913 10.8512 17.2675 11.144 17.6759 11.144C17.7306 11.144 17.7854 11.139 17.8412 11.129C18.3043 11.0361 18.609 10.5834 18.5184 10.1177C18.1111 8.02813 16.5027 6.41424 14.4183 6.00752Z" fill="url(#paint0_linear_603_43766)"/>
<path opacity="0.4" d="M14.3558 2.52551C14.1328 2.49353 13.9087 2.55948 13.7304 2.70139C13.5472 2.84529 13.4326 3.05315 13.4078 3.28599C13.355 3.75666 13.6946 4.18237 14.1646 4.23533C17.4063 4.59709 19.9259 7.12235 20.2904 10.3741C20.3392 10.8098 20.7047 11.1386 21.1409 11.1386C21.1738 11.1386 21.2057 11.1366 21.2385 11.1326C21.4666 11.1076 21.6698 10.9947 21.8132 10.8148C21.9556 10.6349 22.0203 10.4111 21.9944 10.1822C21.5403 6.12504 18.4002 2.9762 14.3558 2.52551Z" fill="url(#paint1_linear_603_43766)"/>
<path fill-rule="evenodd" clip-rule="evenodd" d="M11.0317 13.49C15.0208 17.4779 15.9258 12.8643 18.4656 15.4024C20.9143 17.8503 22.3216 18.3408 19.2192 21.4423C18.8306 21.7546 16.3616 25.5118 7.6846 16.8372C-0.993478 8.16158 2.76158 5.69002 3.07397 5.30153C6.18387 2.19142 6.66586 3.60696 9.11449 6.05491C11.6544 8.59407 7.04266 9.50199 11.0317 13.49Z" fill="url(#paint2_linear_603_43766)"/>
<defs>
<linearGradient id="paint0_linear_603_43766" x1="11.7168" y1="6.56224" x2="18.5419" y2="9.76025" gradientUnits="userSpaceOnUse">
<stop stop-color="#5DE1E7"/>
<stop offset="1" stop-color="#2F75FE"/>
</linearGradient>
<linearGradient id="paint1_linear_603_43766" x1="10.5872" y1="3.47123" x2="22.0112" y2="8.82597" gradientUnits="userSpaceOnUse">
<stop stop-color="#5DE1E7"/>
<stop offset="1" stop-color="#2F75FE"/>
</linearGradient>
<linearGradient id="paint2_linear_603_43766" x1="-4.22124" y1="5.61935" x2="21" y2="17.4733" gradientUnits="userSpaceOnUse">
<stop stop-color="#5DE1E7"/>
<stop offset="1" stop-color="#2F75FE"/>
</linearGradient>
</defs>
</svg>
