<svg width="25" height="24" viewBox="0 0 25 24" fill="none" xmlns="http://www.w3.org/2000/svg">
<path d="M19.375 11H13.375V5C13.375 4.73478 13.2696 4.48043 13.0821 4.29289C12.8946 4.10536 12.6402 4 12.375 4C12.1098 4 11.8554 4.10536 11.6679 4.29289C11.4804 4.48043 11.375 4.73478 11.375 5V11H5.375C5.10978 11 4.85543 11.1054 4.66789 11.2929C4.48036 11.4804 4.375 11.7348 4.375 12C4.375 12.2652 4.48036 12.5196 4.66789 12.7071C4.85543 12.8946 5.10978 13 5.375 13H11.375V19C11.375 19.2652 11.4804 19.5196 11.6679 19.7071C11.8554 19.8946 12.1098 20 12.375 20C12.6402 20 12.8946 19.8946 13.0821 19.7071C13.2696 19.5196 13.375 19.2652 13.375 19V13H19.375C19.6402 13 19.8946 12.8946 20.0821 12.7071C20.2696 12.5196 20.375 12.2652 20.375 12C20.375 11.7348 20.2696 11.4804 20.0821 11.2929C19.8946 11.1054 19.6402 11 19.375 11Z" fill="#868CAA"/>
</svg>
