<svg width="24" height="24" viewBox="0 0 24 24" fill="none" xmlns="http://www.w3.org/2000/svg">
<path d="M10 6C11.1046 6 12 5.10455 12 4C12 2.89543 11.1046 2 10 2C8.8954 2 8 2.89543 8 4C8 5.10455 8.8954 6 10 6Z" fill="#5CE1E6"/>
<path d="M16.5 5C16.5 4.72386 16.2761 4.5 16 4.5C15.7239 4.5 15.5 4.72386 15.5 5V6.1514L16.084 7.02735C16.2372 7.2571 16.5476 7.3192 16.7773 7.16605C17.0071 7.01285 17.0692 6.7024 16.916 6.47265L16.5 5.8486V5Z" fill="#5CE1E6"/>
<path fill-rule="evenodd" clip-rule="evenodd" d="M16 9C17.6568 9 19 7.65685 19 6C19 4.34315 17.6568 3 16 3C14.3432 3 13 4.34315 13 6C13 7.65685 14.3432 9 16 9ZM16 8C17.1045 8 18 7.10455 18 6C18 4.89543 17.1045 4 16 4C14.8954 4 14 4.89543 14 6C14 7.10455 14.8954 8 16 8Z" fill="#5CE1E6"/>
<path fill-rule="evenodd" clip-rule="evenodd" d="M7.87537 13.5309C8.07727 13.6924 8.32257 13.763 8.56182 13.7481C8.56722 14.4077 8.54297 15.0903 8.51647 15.8371C8.47062 17.1288 8.41797 18.6123 8.50007 20.5V21C8.50007 21.5523 8.94777 22 9.50007 22C10.0524 22 10.5001 21.5523 10.5001 21V20.5L11.2311 16.6539C11.3307 16.6235 11.4553 16.5824 11.5961 16.5291C11.9344 16.4011 12.3978 16.1915 12.8382 15.8713C13.2764 15.5526 13.7459 15.0844 14.0024 14.4249C14.2692 13.7389 14.2609 12.9595 13.9285 12.1286C13.3547 10.6941 12.3072 9.4554 11.4572 8.6054C11.0245 8.1727 10.6255 7.82355 10.3334 7.58155C10.187 7.4603 10.0667 7.3652 9.98132 7.2993C9.93862 7.26635 9.90462 7.2406 9.88042 7.2225L9.85157 7.20105L9.84292 7.1947L9.84007 7.1926L9.83822 7.19125L9.76682 7.2894L9.76707 7.28895L9.76752 7.2883C9.83812 7.1912 9.83822 7.19125 9.83822 7.19125C9.66732 7.06695 9.46117 7 9.24982 7H8.25007C7.86812 7 7.56372 7.16585 7.38337 7.2861C7.18602 7.4177 7.00872 7.58205 6.85872 7.7392C6.55707 8.05525 6.26352 8.4509 6.01757 8.81165C5.76707 9.1791 5.54422 9.5425 5.38522 9.8116C5.30532 9.94685 5.24052 10.0599 5.19532 10.1399C5.17267 10.18 5.15492 10.2118 5.14257 10.2341L5.12812 10.2603L5.12407 10.2677L5.12217 10.2711C4.88994 10.6969 4.99667 11.2279 5.37537 11.5309L7.87537 13.5309ZM8.35892 11.3565L7.30022 10.5095C7.41122 10.3299 7.53707 10.1334 7.67002 9.93835C7.75052 9.8203 7.83092 9.7068 7.90977 9.6006C8.11482 10.2212 8.25912 10.7984 8.35892 11.3565Z" fill="#5CE1E6"/>
</svg>
