<svg width="24" height="24" viewBox="0 0 24 24" fill="none" xmlns="http://www.w3.org/2000/svg">
<path fill-rule="evenodd" clip-rule="evenodd" d="M4.36854 6.98875C4.165 7.19231 4.165 7.5223 4.36854 7.72586C4.57208 7.92941 4.90208 7.92941 5.10563 7.72586L5.4744 7.35708L7.31687 9.19956L5.84271 10.6738C5.63916 10.8773 5.63916 11.2074 5.84271 11.4109C6.04626 11.6144 6.37626 11.6144 6.57977 11.4109L7.31669 10.6739L8.6477 12.005H5.06953C4.78588 12.005 4.51384 12.1188 4.31327 12.3216C4.1127 12.5243 4.00001 12.7992 4.00001 13.0859V14.7069C3.99727 15.9658 4.41992 17.1879 5.19802 18.171C5.97613 19.154 7.063 19.8391 8.27883 20.1129C9.4948 19.8393 10.5818 19.1542 11.3601 18.1711C11.9083 17.4786 12.2801 16.6675 12.451 15.8084L13.5821 16.9395C14.3377 17.6952 15.4419 17.8897 16.3771 17.5233L16.8989 18.0451C17.1718 18.3181 17.5584 18.408 17.9062 18.315L19.1103 19.5191C19.3138 19.7227 19.6438 19.7227 19.8473 19.5191C20.0509 19.3156 20.0509 18.9856 19.8473 18.782L18.6431 17.5777C18.7358 17.23 18.6458 16.8437 18.3731 16.5709L17.8512 16.0491C17.9429 15.8153 17.9994 15.571 18.0209 15.3241C18.0371 15.138 18.0334 14.9505 18.0097 14.7651C17.9392 14.2126 17.6918 13.6783 17.2675 13.254L11.0021 6.98844L11.7394 6.2512C11.9429 6.04765 11.9429 5.71761 11.7394 5.51408C11.5358 5.31053 11.2058 5.31054 11.0023 5.51408L9.52813 6.98826L7.68564 5.14577L8.05397 4.77746C8.25748 4.57391 8.25748 4.2439 8.05397 4.04035C7.85042 3.83681 7.52042 3.83681 7.31687 4.04035L4.36854 6.98875ZM13.2551 15.3384L15.6664 12.927L10.3651 7.6255L7.9537 10.0369L9.92173 12.005H11.4889C11.7725 12.005 12.0445 12.1188 12.2451 12.3216C12.4457 12.5243 12.5584 12.7992 12.5584 13.0859V14.6417L13.2551 15.3384ZM8.89112 7.62532L7.04863 5.78279L6.1114 6.72007L7.95388 8.56255L8.89112 7.62532ZM17.3649 16.8368C17.3336 16.8717 17.3011 16.906 17.2675 16.9395C17.2339 16.9731 17.1997 17.0056 17.1648 17.037L17.5359 17.4081C17.5912 17.4634 17.6808 17.4634 17.7361 17.4081C17.7913 17.3529 17.7913 17.2633 17.7361 17.208L17.3649 16.8368ZM16.4035 13.6641L16.6305 13.891C16.9032 14.1638 17.0643 14.506 17.1136 14.8607C17.1314 14.9884 17.1346 15.1178 17.1234 15.2461C17.1093 15.4076 17.0722 15.5676 17.0122 15.7206L16.0487 16.6841C15.4366 16.9243 14.7137 16.7971 14.2191 16.3024L13.9921 16.0755L16.4035 13.6641ZM8.95485 14.2572C8.95485 14.0084 8.75319 13.8067 8.50441 13.8067C8.25563 13.8067 8.05397 14.0084 8.05397 14.2572V15.158H7.15309C6.90431 15.158 6.70265 15.3597 6.70265 15.6085C6.70265 15.8573 6.90431 16.0589 7.15309 16.0589H8.05397V16.9598C8.05397 17.2086 8.25563 17.4103 8.50441 17.4103C8.75319 17.4103 8.95485 17.2086 8.95485 16.9598V16.0589H9.85574C10.1045 16.0589 10.3062 15.8573 10.3062 15.6085C10.3062 15.3597 10.1045 15.158 9.85574 15.158H8.95485V14.2572Z"/>
</svg>
