<svg width="24" height="24" viewBox="0 0 24 24" fill="none" xmlns="http://www.w3.org/2000/svg">
<path fill-rule="evenodd" clip-rule="evenodd" d="M21 7C21 9.20915 19.2092 11 17 11C14.7908 11 13 9.20915 13 7C13 4.79086 14.7908 3 17 3C19.2092 3 21 4.79086 21 7ZM19.1411 7.49235C19.0793 7.7615 18.8109 7.9295 18.5418 7.8676L15.234 7.10715C14.9649 7.0453 14.7969 6.77695 14.8588 6.50785C14.9207 6.23875 15.1889 6.0707 15.458 6.1326L18.7659 6.89305C19.035 6.9549 19.203 7.22325 19.1411 7.49235Z" fill="white"/>
<path d="M8.3891 4.62258C8.06535 3.85668 6.98265 3.77942 6.54775 4.49119L3.14641 10.0574C2.75405 10.6995 3.19274 11.5192 3.95795 11.5739L9.89115 11.9972C10.6564 12.0518 11.2131 11.3031 10.921 10.6122L8.3891 4.62258Z" fill="white"/>
<path fill-rule="evenodd" clip-rule="evenodd" d="M17.6928 18.1796C19.1944 17.4794 19.8441 15.6944 19.1438 14.1928C18.4436 12.6912 16.6587 12.0415 15.1571 12.7417L9.71921 15.2774C8.21756 15.9777 7.56791 17.7626 8.26811 19.2642C8.96836 20.7658 10.7533 21.4155 12.2549 20.7153L17.6928 18.1796ZM14.9716 18.3451L17.2701 17.2733C18.2712 16.8065 18.7043 15.6165 18.2375 14.6154C17.7707 13.6143 16.5808 13.1812 15.5797 13.648L13.2812 14.7198L14.9716 18.3451Z" fill="white"/>
</svg>
