<svg width="16" height="16" viewBox="0 0 16 16" fill="none" xmlns="http://www.w3.org/2000/svg">
<path d="M7.33269 1.33333C6.01414 1.33333 4.72521 1.72432 3.62888 2.45686C2.53256 3.18941 1.67807 4.2306 1.17349 5.44877C0.668904 6.66695 0.536882 8.00739 0.794117 9.3006C1.05135 10.5938 1.68629 11.7817 2.61864 12.714C3.55099 13.6464 4.73888 14.2813 6.03208 14.5386C7.32529 14.7958 8.66573 14.6638 9.88391 14.1592C11.1021 13.6546 12.1433 12.8001 12.8758 11.7038C13.6084 10.6075 13.9994 9.31854 13.9994 8C13.9994 7.12452 13.8269 6.25761 13.4919 5.44877C13.1569 4.63993 12.6658 3.90501 12.0467 3.28595C11.4277 2.66689 10.6927 2.17583 9.88391 1.8408C9.07507 1.50577 8.20816 1.33333 7.33269 1.33333ZM7.33269 13.3333C6.27785 13.3333 5.24671 13.0205 4.36964 12.4345C3.49258 11.8485 2.809 11.0155 2.40533 10.041C2.00166 9.06643 1.89604 7.99408 2.10183 6.95951C2.30762 5.92495 2.81557 4.97464 3.56145 4.22876C4.30733 3.48288 5.25764 2.97493 6.2922 2.76914C7.32677 2.56335 8.39912 2.66897 9.37366 3.07264C10.3482 3.47631 11.1812 4.15989 11.7672 5.03695C12.3532 5.91402 12.666 6.94516 12.666 8C12.666 9.41448 12.1041 10.771 11.1039 11.7712C10.1037 12.7714 8.74717 13.3333 7.33269 13.3333ZM9.39935 8.42L7.99935 7.61333V4.66666C7.99935 4.48985 7.92911 4.32028 7.80409 4.19526C7.67907 4.07023 7.5095 3.99999 7.33269 3.99999C7.15587 3.99999 6.98631 4.07023 6.86128 4.19526C6.73626 4.32028 6.66602 4.48985 6.66602 4.66666V8C6.66602 8 6.66602 8.05333 6.66602 8.08C6.66997 8.12593 6.68122 8.17094 6.69935 8.21333C6.71308 8.25288 6.73096 8.29087 6.75269 8.32666C6.77093 8.36455 6.79328 8.40033 6.81935 8.43333L6.92602 8.51999L6.98602 8.58L8.71935 9.58C8.82095 9.63758 8.9359 9.66747 9.05269 9.66666C9.2003 9.66769 9.34408 9.61971 9.46148 9.53022C9.57888 9.44074 9.66326 9.31482 9.70139 9.17222C9.73952 9.02961 9.72924 8.87838 9.67216 8.74225C9.61509 8.60611 9.51445 8.49277 9.38602 8.42H9.39935Z" fill="#35C4C4"/>
</svg>
