<svg width="16" height="17" viewBox="0 0 16 17" fill="none" xmlns="http://www.w3.org/2000/svg">
<path d="M7.33269 1.45361C6.01414 1.45361 4.72521 1.84461 3.62888 2.57715C2.53256 3.30969 1.67807 4.35088 1.17349 5.56906C0.668904 6.78723 0.536882 8.12768 0.794117 9.42088C1.05135 10.7141 1.68629 11.902 2.61864 12.8343C3.55099 13.7667 4.73888 14.4016 6.03208 14.6588C7.32529 14.9161 8.66573 14.7841 9.88391 14.2795C11.1021 13.7749 12.1433 12.9204 12.8758 11.8241C13.6084 10.7278 13.9994 9.43882 13.9994 8.12028C13.9994 7.2448 13.8269 6.37789 13.4919 5.56906C13.1569 4.76022 12.6658 4.02529 12.0467 3.40623C11.4277 2.78718 10.6927 2.29611 9.88391 1.96108C9.07507 1.62605 8.20816 1.45361 7.33269 1.45361ZM7.33269 13.4536C6.27785 13.4536 5.24671 13.1408 4.36964 12.5548C3.49258 11.9688 2.809 11.1358 2.40533 10.1613C2.00166 9.18672 1.89604 8.11436 2.10183 7.0798C2.30762 6.04523 2.81557 5.09492 3.56145 4.34904C4.30733 3.60316 5.25764 3.09521 6.2922 2.88943C7.32677 2.68364 8.39912 2.78926 9.37366 3.19292C10.3482 3.59659 11.1812 4.28018 11.7672 5.15724C12.3532 6.0343 12.666 7.06545 12.666 8.12028C12.666 9.53477 12.1041 10.8913 11.1039 11.8915C10.1037 12.8917 8.74717 13.4536 7.33269 13.4536ZM9.39935 8.54028L7.99935 7.73361V4.78695C7.99935 4.61014 7.92911 4.44057 7.80409 4.31554C7.67907 4.19052 7.5095 4.12028 7.33269 4.12028C7.15587 4.12028 6.98631 4.19052 6.86128 4.31554C6.73626 4.44057 6.66602 4.61014 6.66602 4.78695V8.12028C6.66602 8.12028 6.66602 8.17361 6.66602 8.20028C6.66997 8.24621 6.68122 8.29122 6.69935 8.33361C6.71308 8.37317 6.73096 8.41116 6.75269 8.44695C6.77093 8.48484 6.79328 8.52061 6.81935 8.55361L6.92602 8.64028L6.98602 8.70028L8.71935 9.70028C8.82095 9.75787 8.9359 9.78775 9.05269 9.78695C9.2003 9.78798 9.34408 9.73999 9.46148 9.65051C9.57888 9.56102 9.66326 9.43511 9.70139 9.2925C9.73952 9.1499 9.72924 8.99867 9.67216 8.86253C9.61509 8.7264 9.51445 8.61306 9.38602 8.54028H9.39935Z" fill="url(#paint0_linear_603_41997)"/>
<defs>
<linearGradient id="paint0_linear_603_41997" x1="-3.69977" y1="2.92854" x2="13.9994" y2="11.2471" gradientUnits="userSpaceOnUse">
<stop stop-color="#5DE1E7"/>
<stop offset="1" stop-color="#2F75FE"/>
</linearGradient>
</defs>
</svg>
