<svg width="24" height="25" viewBox="0 0 24 25" fill="none" xmlns="http://www.w3.org/2000/svg">
<path fill-rule="evenodd" clip-rule="evenodd" d="M12 22.5177C6.48 22.5177 2 18.0477 2 12.5177C2 6.99767 6.48 2.51767 12 2.51767C17.53 2.51767 22 6.99767 22 12.5177C22 18.0477 17.53 22.5177 12 22.5177ZM15.19 16.2277C15.31 16.2977 15.44 16.3377 15.58 16.3377C15.83 16.3377 16.08 16.2077 16.22 15.9677C16.43 15.6177 16.32 15.1577 15.96 14.9377L12.4 12.8177V8.19767C12.4 7.77767 12.06 7.44767 11.65 7.44767C11.24 7.44767 10.9 7.77767 10.9 8.19767V13.2477C10.9 13.5077 11.04 13.7477 11.27 13.8877L15.19 16.2277Z" fill="url(#paint0_linear_603_43763)"/>
<defs>
<linearGradient id="paint0_linear_603_43763" x1="-4.54867" y1="4.73006" x2="22" y2="17.2079" gradientUnits="userSpaceOnUse">
<stop stop-color="#5DE1E7"/>
<stop offset="1" stop-color="#2F75FE"/>
</linearGradient>
</defs>
</svg>
