<svg width="16" height="17" viewBox="0 0 16 17" fill="none" xmlns="http://www.w3.org/2000/svg">
<path d="M10.4743 8.97333C11.1279 8.4591 11.605 7.75394 11.8391 6.95596C12.0733 6.15797 12.0529 5.30684 11.7808 4.52097C11.5087 3.73511 10.9985 3.05359 10.321 2.57123C9.64357 2.08888 8.83261 1.82967 8.00097 1.82967C7.16934 1.82967 6.35838 2.08888 5.68093 2.57123C5.00347 3.05359 4.4932 3.73511 4.22112 4.52097C3.94903 5.30684 3.92865 6.15797 4.16282 6.95596C4.39698 7.75394 4.87405 8.4591 5.52764 8.97333C4.40769 9.42202 3.4305 10.1662 2.70024 11.1266C1.96997 12.087 1.51402 13.2275 1.38097 14.4267C1.37134 14.5142 1.37905 14.6028 1.40366 14.6874C1.42826 14.7719 1.46929 14.8508 1.52438 14.9195C1.63565 15.0583 1.7975 15.1472 1.97431 15.1667C2.15112 15.1861 2.32841 15.1345 2.46719 15.0233C2.60597 14.912 2.69486 14.7501 2.71431 14.5733C2.8607 13.2701 3.4821 12.0665 4.45979 11.1925C5.43748 10.3185 6.70291 9.83535 8.01431 9.83535C9.32571 9.83535 10.5911 10.3185 11.5688 11.1925C12.5465 12.0665 13.1679 13.2701 13.3143 14.5733C13.3324 14.7371 13.4106 14.8884 13.5337 14.998C13.6568 15.1076 13.8162 15.1677 13.981 15.1667H14.0543C14.2291 15.1466 14.3888 15.0582 14.4987 14.9208C14.6086 14.7835 14.6597 14.6082 14.641 14.4333C14.5073 13.2308 14.0489 12.0873 13.3149 11.1255C12.5809 10.1636 11.5989 9.41965 10.4743 8.97333ZM8.00097 8.5C7.47356 8.5 6.95799 8.3436 6.51945 8.05058C6.08092 7.75757 5.73913 7.34109 5.5373 6.85382C5.33546 6.36655 5.28265 5.83037 5.38555 5.31309C5.48844 4.79581 5.74242 4.32065 6.11536 3.94771C6.4883 3.57477 6.96345 3.3208 7.48073 3.2179C7.99802 3.11501 8.53419 3.16782 9.02146 3.36965C9.50873 3.57148 9.92521 3.91328 10.2182 4.35181C10.5112 4.79034 10.6676 5.30591 10.6676 5.83333C10.6676 6.54057 10.3867 7.21885 9.88659 7.71895C9.3865 8.21905 8.70822 8.5 8.00097 8.5Z" fill="white"/>
</svg>
