<svg width="16" height="17" viewBox="0 0 16 17" fill="none" xmlns="http://www.w3.org/2000/svg">
<path d="M10.4743 8.59337C11.1279 8.07914 11.605 7.37398 11.8391 6.576C12.0733 5.77801 12.0529 4.92688 11.7808 4.14102C11.5087 3.35515 10.9985 2.67363 10.321 2.19127C9.64357 1.70892 8.83261 1.44971 8.00097 1.44971C7.16934 1.44971 6.35838 1.70892 5.68093 2.19127C5.00347 2.67363 4.4932 3.35515 4.22112 4.14102C3.94903 4.92688 3.92865 5.77801 4.16282 6.576C4.39698 7.37398 4.87405 8.07914 5.52764 8.59337C4.40769 9.04206 3.4305 9.78627 2.70024 10.7466C1.96997 11.707 1.51402 12.8476 1.38097 14.0467C1.37134 14.1343 1.37905 14.2228 1.40366 14.3074C1.42826 14.392 1.46929 14.4709 1.52438 14.5396C1.63565 14.6784 1.7975 14.7673 1.97431 14.7867C2.15112 14.8062 2.32841 14.7546 2.46719 14.6433C2.60597 14.532 2.69486 14.3702 2.71431 14.1934C2.8607 12.8902 3.4821 11.6866 4.45979 10.8126C5.43748 9.93855 6.70291 9.45539 8.01431 9.45539C9.32571 9.45539 10.5911 9.93855 11.5688 10.8126C12.5465 11.6866 13.1679 12.8902 13.3143 14.1934C13.3324 14.3572 13.4106 14.5085 13.5337 14.618C13.6568 14.7276 13.8162 14.7877 13.981 14.7867H14.0543C14.2291 14.7666 14.3888 14.6782 14.4987 14.5409C14.6086 14.4035 14.6597 14.2283 14.641 14.0534C14.5073 12.8508 14.0489 11.7074 13.3149 10.7455C12.5809 9.78365 11.5989 9.03969 10.4743 8.59337ZM8.00097 8.12004C7.47356 8.12004 6.95799 7.96364 6.51945 7.67062C6.08092 7.37761 5.73913 6.96113 5.5373 6.47386C5.33546 5.98659 5.28265 5.45041 5.38555 4.93313C5.48844 4.41585 5.74242 3.94069 6.11536 3.56775C6.4883 3.19481 6.96345 2.94084 7.48073 2.83794C7.99802 2.73505 8.53419 2.78786 9.02146 2.98969C9.50873 3.19153 9.92521 3.53332 10.2182 3.97185C10.5112 4.41038 10.6676 4.92595 10.6676 5.45337C10.6676 6.16061 10.3867 6.83889 9.88659 7.33899C9.3865 7.83909 8.70822 8.12004 8.00097 8.12004Z" fill="url(#paint0_linear_603_42001)"/>
<defs>
<linearGradient id="paint0_linear_603_42001" x1="-2.96738" y1="2.92548" x2="14.6797" y2="11.1741" gradientUnits="userSpaceOnUse">
<stop stop-color="#5DE1E7"/>
<stop offset="1" stop-color="#2F75FE"/>
</linearGradient>
</defs>
</svg>
