<svg width="17" height="17" viewBox="0 0 17 17" fill="none" xmlns="http://www.w3.org/2000/svg">
<path d="M11.3083 8.97374C11.9619 8.45951 12.439 7.75436 12.6731 6.95637C12.9073 6.15838 12.8869 5.30725 12.6148 4.52139C12.3427 3.73552 11.8325 3.054 11.155 2.57165C10.4775 2.08929 9.66659 1.83008 8.83496 1.83008C8.00332 1.83008 7.19237 2.08929 6.51491 2.57165C5.83746 3.054 5.32719 3.73552 5.0551 4.52139C4.78301 5.30725 4.76263 6.15838 4.9968 6.95637C5.23097 7.75436 5.70803 8.45951 6.36163 8.97374C5.24168 9.42244 4.26448 10.1666 3.53422 11.127C2.80396 12.0874 2.348 13.2279 2.21496 14.4271C2.20533 14.5146 2.21304 14.6032 2.23764 14.6878C2.26225 14.7723 2.30327 14.8512 2.35837 14.92C2.46964 15.0587 2.63148 15.1476 2.80829 15.1671C2.9851 15.1865 3.1624 15.1349 3.30118 15.0237C3.43995 14.9124 3.52884 14.7506 3.54829 14.5737C3.69468 13.2705 4.31608 12.0669 5.29377 11.1929C6.27146 10.3189 7.53689 9.83576 8.84829 9.83576C10.1597 9.83576 11.4251 10.3189 12.4028 11.1929C13.3805 12.0669 14.0019 13.2705 14.1483 14.5737C14.1664 14.7376 14.2446 14.8888 14.3677 14.9984C14.4908 15.108 14.6501 15.1681 14.815 15.1671H14.8883C15.063 15.147 15.2228 15.0586 15.3327 14.9212C15.4426 14.7839 15.4937 14.6086 15.475 14.4337C15.3413 13.2312 14.8829 12.0877 14.1489 11.1259C13.4148 10.164 12.4329 9.42006 11.3083 8.97374ZM8.83496 8.50041C8.30754 8.50041 7.79197 8.34401 7.35344 8.05099C6.91491 7.75798 6.57311 7.3415 6.37128 6.85423C6.16945 6.36696 6.11664 5.83078 6.21953 5.3135C6.32242 4.79622 6.5764 4.32106 6.94934 3.94812C7.32228 3.57518 7.79744 3.32121 8.31472 3.21831C8.832 3.11542 9.36818 3.16823 9.85545 3.37006C10.3427 3.5719 10.7592 3.91369 11.0522 4.35222C11.3452 4.79075 11.5016 5.30633 11.5016 5.83374C11.5016 6.54099 11.2207 7.21926 10.7206 7.71936C10.2205 8.21946 9.5422 8.50041 8.83496 8.50041Z" fill="#4F5675"/>
</svg>
