<svg width="24" height="24" viewBox="0 0 24 24" fill="none" xmlns="http://www.w3.org/2000/svg">
<path fill-rule="evenodd" clip-rule="evenodd" d="M7 2C6.72385 2 6.5 2.22386 6.5 2.5V4C6.5 4.27614 6.72385 4.5 7 4.5H7.5V5.63645C7.2087 5.7394 7 6.0172 7 6.34375V19.5C7 20.8807 8.1193 22 9.5 22C10.5722 22 11.4868 21.3249 11.842 20.3766C10.7178 19.4598 10 18.0637 10 16.5C10 14.8642 10.7856 13.4118 12 12.4997V6.34375C12 6.0172 11.7913 5.7394 11.5 5.63645V4.5H12C12.2761 4.5 12.5 4.27614 12.5 4V2.5C12.5 2.22386 12.2761 2 12 2H7ZM8.5 5.84375V4.5H10.5V5.84375C10.5 6.1703 10.7087 6.4481 11 6.55105V9H8V6.55105C8.2913 6.4481 8.5 6.1703 8.5 5.84375ZM16.3787 18.5858C16.1163 18.7596 15.8192 18.8852 15.5 18.95V19.5C15.7761 19.5 16 19.7239 16 20C16 20.2761 15.7761 20.5 15.5 20.5H14.5C14.2239 20.5 14 20.2761 14 20C14 19.7239 14.2239 19.5 14.5 19.5V18.95C14.1808 18.8852 13.8837 18.7596 13.6213 18.5858L13.2071 19C13.4023 19.1953 13.4023 19.5119 13.2071 19.7071C13.0118 19.9024 12.6953 19.9024 12.5 19.7071L11.7928 19C11.5976 18.8048 11.5976 18.4882 11.7928 18.2929C11.9881 18.0977 12.3047 18.0977 12.5 18.2929L12.9142 17.8787C12.7404 17.6163 12.6148 17.3192 12.55 17H12C12 17.2761 11.7761 17.5 11.5 17.5C11.2239 17.5 11 17.2761 11 17V16C11 15.7239 11.2239 15.5 11.5 15.5C11.7761 15.5 12 15.7239 12 16H12.55C12.6148 15.6808 12.7404 15.3837 12.9142 15.1213L12.5 14.7072C12.3047 14.9024 11.9882 14.9024 11.7929 14.7072C11.5977 14.5119 11.5977 14.1953 11.7929 14L12.1418 13.6512C12.1433 13.6496 12.1449 13.648 12.1465 13.6465C12.148 13.6449 12.1496 13.6433 12.1512 13.6418L12.5 13.2929C12.6953 13.0976 13.0119 13.0976 13.2072 13.2929C13.4024 13.4882 13.4024 13.8048 13.2072 14L13.6213 14.4142C13.8837 14.2404 14.1808 14.1148 14.5 14.05V13.5C14.2239 13.5 14 13.2761 14 13C14 12.7239 14.2239 12.5 14.5 12.5H15.5C15.7761 12.5 16 12.7239 16 13C16 13.2761 15.7761 13.5 15.5 13.5V14.05C15.8192 14.1148 16.1163 14.2404 16.3787 14.4142L16.7929 14C16.5977 13.8047 16.5977 13.4881 16.7929 13.2928C16.9882 13.0976 17.3048 13.0976 17.5 13.2928L18.2071 14C18.4024 14.1952 18.4024 14.5118 18.2071 14.7071C18.0118 14.9024 17.6953 14.9024 17.5 14.7071L17.0858 15.1213C17.2596 15.3837 17.3852 15.6808 17.45 16H18C18 15.7239 18.2239 15.5 18.5 15.5C18.7761 15.5 19 15.7239 19 16V17C19 17.2761 18.7761 17.5 18.5 17.5C18.2239 17.5 18 17.2761 18 17H17.45C17.3852 17.3192 17.2596 17.6163 17.0858 17.8787L17.5 18.2929C17.6953 18.0977 18.0118 18.0977 18.2071 18.2929C18.4024 18.4882 18.4024 18.8048 18.2071 19L17.5 19.7071C17.3048 19.9024 16.9882 19.9024 16.7929 19.7071C16.5977 19.5119 16.5977 19.1953 16.7929 19L16.3787 18.5858Z"/>
</svg>
