<svg width="24" height="24" viewBox="0 0 24 24" fill="none" xmlns="http://www.w3.org/2000/svg">
<path fill-rule="evenodd" clip-rule="evenodd" d="M5.46543 6.10594C5.39131 5.98059 5.37911 5.85123 5.37891 5.77149C5.37866 5.67115 5.39724 5.56993 5.42888 5.47295C5.49282 5.27696 5.61832 5.07188 5.81292 4.87462C6.2011 4.48115 6.87898 4.10164 8.00559 3.84269C9.13679 3.58267 9.93436 3.63905 10.4719 3.843C10.7402 3.94482 10.9516 4.08689 11.0981 4.25222C11.1707 4.3342 11.2336 4.42903 11.2748 4.53436C11.3084 4.62042 11.3404 4.74759 11.3166 4.89056C11.3144 4.90935 11.3111 4.93239 11.3062 4.95921C11.2973 5.00787 11.2832 5.06911 11.2605 5.14006C11.2369 5.25497 11.2138 5.38117 11.196 5.48297C11.1903 5.51576 11.1851 5.54569 11.1807 5.57148L13.311 14.6438C13.6531 16.1007 12.7454 17.5579 11.287 17.8931C9.83823 18.2261 8.39276 17.3257 8.05295 15.8785L5.9157 6.77659L5.56361 6.25355C5.53296 6.21331 5.50909 6.17792 5.49123 6.14939C5.48116 6.13333 5.47298 6.1194 5.46654 6.10795L5.46543 6.10594ZM7.00801 7.05387L7.76087 10.2601C8.37698 10.3336 8.89223 10.3394 9.39504 10.2279C9.90391 10.1151 10.4329 9.87443 11.0541 9.40685L10.326 6.30573C9.94726 6.56409 9.42918 6.79951 8.72257 6.96192C8.03161 7.12075 7.46666 7.13157 7.00801 7.05387ZM10.2956 4.86918L10.2947 4.87345C10.2193 5.07043 9.89493 5.66637 8.49855 5.98734C7.70648 6.1694 7.19578 6.10275 6.88269 5.99421C6.63975 5.90998 6.49378 5.79292 6.41504 5.71198C6.43729 5.6765 6.47183 5.63062 6.52481 5.57692C6.73338 5.3655 7.21157 5.05127 8.22961 4.81727C9.24306 4.58432 9.82507 4.66715 10.1171 4.77796C10.2007 4.80967 10.258 4.84255 10.2956 4.86918Z" fill="white"/>
<path fill-rule="evenodd" clip-rule="evenodd" d="M12.5935 6.17568C12.577 6.02779 12.6198 5.90041 12.6547 5.82242C12.6981 5.72523 12.7608 5.63406 12.8356 5.55175C12.9868 5.38555 13.206 5.23491 13.4958 5.12268C14.074 4.89876 14.9541 4.8182 16.2589 5.07833C17.5683 5.33939 18.3677 5.77294 18.824 6.22918C19.0518 6.45701 19.1998 6.69685 19.2715 6.92674C19.3071 7.04083 19.3266 7.16148 19.3206 7.28125C19.3156 7.37998 19.291 7.51459 19.2077 7.63896C19.1973 7.65635 19.1838 7.67781 19.1668 7.70257C19.1355 7.74817 19.0923 7.80512 19.035 7.86858C18.9794 7.94564 18.9199 8.03066 18.864 8.11193C18.8123 8.1872 18.7661 8.25559 18.7327 8.30548L16.6685 18.9195C16.3459 20.5782 14.736 21.6583 13.0788 21.3279C11.4326 20.9997 10.3612 19.4029 10.6816 17.7551L12.7523 7.1081L12.6261 6.37149C12.6172 6.33368 12.6106 6.29979 12.6057 6.2704C12.6006 6.23949 12.5973 6.21348 12.5952 6.193L12.5935 6.17568ZM12.7411 12.4041C13.3872 12.7978 13.9547 13.0671 14.5715 13.1951C15.1832 13.322 15.8772 13.3164 16.7799 13.1086L17.6556 8.60579C17.1211 8.71908 16.4359 8.73301 15.5648 8.55935C14.7042 8.38776 14.0839 8.1058 13.6395 7.7848L12.7411 12.4041ZM18.2995 7.1808L18.2635 7.22942C18.1999 7.29348 18.0957 7.37979 17.937 7.46028C17.5892 7.63671 16.9267 7.81119 15.7604 7.57865C14.6029 7.34789 14.0753 6.91435 13.8325 6.60265C13.708 6.44281 13.6471 6.30088 13.6174 6.20736L13.6121 6.19011C13.6566 6.15331 13.7334 6.10304 13.8569 6.0552C14.1966 5.92363 14.8678 5.82068 16.0633 6.05903C17.2543 6.29647 17.8463 6.6657 18.1169 6.93632C18.2201 7.03953 18.2734 7.12477 18.2995 7.1808Z" fill="white"/>
</svg>
