<svg width="24" height="25" viewBox="0 0 24 25" fill="none" xmlns="http://www.w3.org/2000/svg">
<path fill-rule="evenodd" clip-rule="evenodd" d="M14.2496 4.76758C14.2496 6.01023 13.2422 7.01758 11.9996 7.01758C10.7569 7.01758 9.74956 6.01023 9.74956 4.76758C9.74956 3.52494 10.7569 2.51758 11.9996 2.51758C13.2422 2.51758 14.2496 3.52494 14.2496 4.76758ZM14.9996 17.5176H12.6318L13.0037 21.6081C13.0521 22.1406 13.5108 22.5408 14.0449 22.5166C14.579 22.4923 14.9996 22.0522 14.9996 21.5176V17.5176ZM11.3673 17.5176H8.99956V21.5176C8.99956 22.0522 9.42016 22.4923 9.95426 22.5166C10.4884 22.5408 10.9471 22.1406 10.9955 21.6081L11.3673 17.5176ZM17.9773 7.51758H18.0227C18.0076 7.51723 17.9925 7.51723 17.9773 7.51758ZM5.97656 7.51758C5.99151 7.51723 6.00646 7.51723 6.02146 7.51758H5.97656Z" fill="white"/>
<path fill-rule="evenodd" clip-rule="evenodd" d="M5.5 8.01758C5.22385 8.01758 5 8.24143 5 8.51758V16.0176C5 16.2937 5.22385 16.5176 5.5 16.5176H18.5C18.7761 16.5176 19 16.2937 19 16.0176V8.51758C19 8.24143 18.7761 8.01758 18.5 8.01758H5.5ZM11.5 9.01758V9.76758H11.25C10.7846 9.76758 10.2796 9.91798 9.9229 10.0477C9.73775 10.115 9.57835 10.1821 9.4649 10.2325C9.408 10.2578 9.36225 10.2791 9.33005 10.2944C9.31395 10.302 9.30125 10.3082 9.2922 10.3126L9.28145 10.3179L9.2782 10.3195L9.2771 10.32L9.27655 10.3203C9.27645 10.3203 9.2764 10.3204 9.5 10.7676C9.7236 11.2148 9.72355 11.2148 9.7235 11.2148L9.72435 11.2144L9.73065 11.2113C9.7366 11.2084 9.7461 11.2038 9.7588 11.1978C9.78425 11.1857 9.82245 11.1679 9.87105 11.1464C9.9685 11.103 10.106 11.0452 10.2646 10.9875C10.5954 10.8672 10.9654 10.7676 11.25 10.7676H11.5V11.7676H11.1C10.5014 11.7676 9.87325 12.0855 9.45335 12.34C9.2306 12.475 9.0394 12.6092 8.90395 12.7095C8.83595 12.7599 8.78135 12.8022 8.74315 12.8324C8.724 12.8476 8.70895 12.8597 8.6983 12.8684L8.68565 12.8787L8.6819 12.8818L8.6807 12.8828L8.68025 12.8832C8.68015 12.8833 8.6799 12.8835 9 13.2676C9.3201 13.6517 9.32005 13.6517 9.31995 13.6518L9.3213 13.6507L9.3291 13.6443C9.3365 13.6383 9.34805 13.629 9.3635 13.6168C9.3944 13.5923 9.4406 13.5565 9.4992 13.5131C9.61685 13.4259 9.7819 13.3102 9.97165 13.1952C10.3767 12.9497 10.7987 12.7676 11.1 12.7676H11.5V13.8515C11.1493 13.9501 10.8126 14.1227 10.5397 14.3184C10.3398 14.4617 10.1543 14.6314 10.0138 14.8179C9.87955 14.9962 9.75 15.2388 9.75 15.5176H10.75C10.75 15.5197 10.7499 15.5216 10.7499 15.523C10.7498 15.5243 10.7498 15.5253 10.7498 15.5261C10.7497 15.5272 10.7496 15.5278 10.7497 15.5278C10.7497 15.5278 10.7499 15.5272 10.7503 15.5261C10.753 15.5183 10.7649 15.4829 10.8126 15.4195C10.8778 15.3329 10.9829 15.2312 11.1224 15.1311C11.4026 14.9302 11.7438 14.7908 12.016 14.7678C12.2469 14.7734 12.5739 14.8998 12.8622 15.1094C13.0036 15.2123 13.1129 15.3192 13.182 15.4113C13.2326 15.4788 13.246 15.517 13.2493 15.5263L13.2498 15.5275C13.25 15.5282 13.2501 15.5285 13.2502 15.5285C13.2505 15.5285 13.25 15.5248 13.25 15.5176H14.25C14.25 15.2365 14.1162 14.9902 13.982 14.8113C13.8401 14.6222 13.6527 14.4479 13.4503 14.3007C13.1838 14.1068 12.8495 13.9304 12.5 13.8371V12.7676H13.05C13.4244 12.7676 13.8093 12.9507 14.1315 13.1769C14.2867 13.2858 14.4143 13.3954 14.5024 13.4774C14.5463 13.5182 14.5797 13.5515 14.6013 13.5737C14.6121 13.5847 14.6199 13.5929 14.6244 13.5978L14.6285 13.6023C14.6284 13.6022 14.6284 13.6021 15 13.2676C15.3716 12.9331 15.3716 12.933 15.3715 12.9329L15.3707 12.9321L15.3694 12.9307L15.3659 12.9268L15.3548 12.9149C15.3457 12.9051 15.3331 12.8918 15.3173 12.8756C15.2856 12.843 15.2404 12.7982 15.1835 12.7452C15.0702 12.6398 14.907 12.4994 14.7059 12.3583C14.3157 12.0844 13.7255 11.7676 13.05 11.7676H12.5V10.7676H12.875C13.2221 10.7676 13.5597 10.8681 13.8216 10.9784C13.9501 11.0325 14.0546 11.0865 14.1255 11.126C14.1608 11.1458 14.1874 11.1617 14.204 11.1719C14.2124 11.177 14.2182 11.1807 14.2213 11.1828L14.2228 11.1837C14.2227 11.1837 14.2226 11.1836 14.5 10.7676C14.7774 10.3515 14.7772 10.3515 14.7771 10.3514L14.7764 10.3509L14.7751 10.35L14.7716 10.3478L14.7614 10.3412C14.7531 10.3359 14.742 10.3288 14.7281 10.3203C14.7003 10.3032 14.6615 10.28 14.6128 10.2529C14.5157 10.1987 14.3779 10.1276 14.2097 10.0568C13.8778 9.91703 13.4029 9.76758 12.875 9.76758H12.5005L12.5 9.01758H11.5Z" fill="white"/>
</svg>
